%TF.GenerationSoftware,Altium Limited,Altium Designer,20.1.14 (287)*%
G04 Layer_Color=0*
%FSLAX25Y25*%
%MOIN*%
%TF.SameCoordinates,50D419B3-0610-4842-9EF4-231284EAA126*%
%TF.FilePolarity,Positive*%
%TF.FileFunction,Plated,1,2,PTH,Drill*%
%TF.Part,Single*%
G01*
G75*
%TA.AperFunction,ComponentDrill*%
%ADD22C,0.05906*%
%ADD23C,0.06693*%
%ADD24C,0.03543*%
%ADD25C,0.03543*%
%TA.AperFunction,ViaDrill,NotFilled*%
%ADD26C,0.02800*%
D22*
X27500Y22000D02*
D03*
D23*
X17658Y12157D02*
D03*
X37343Y12157D02*
D03*
X37343Y31842D02*
D03*
X17658Y31842D02*
D03*
D24*
X61500Y159000D02*
D03*
X61500Y149000D02*
D03*
X51500Y159000D02*
D03*
X51500Y149000D02*
D03*
X41500Y159000D02*
D03*
X41500Y149000D02*
D03*
X31500Y159000D02*
D03*
X31500Y149000D02*
D03*
X109000Y190500D02*
D03*
X99000Y190500D02*
D03*
X89000Y190500D02*
D03*
D25*
X207000Y56500D02*
D03*
X207000Y66500D02*
D03*
X207000Y76500D02*
D03*
X207000Y86500D02*
D03*
X207000Y96500D02*
D03*
X207000Y106500D02*
D03*
X207000Y116500D02*
D03*
X207000Y126500D02*
D03*
X207000Y136500D02*
D03*
X207000Y146500D02*
D03*
X207000Y156500D02*
D03*
X207000Y166500D02*
D03*
X207000Y176500D02*
D03*
X207000Y186500D02*
D03*
D26*
X173000Y27000D02*
D03*
X220000Y63000D02*
D03*
X99500Y46000D02*
D03*
X85500Y98000D02*
D03*
X103500Y172500D02*
D03*
X146500Y168500D02*
D03*
X164000Y136000D02*
D03*
%TF.MD5,98a6b0761ed4a367e71453a7e89031e8*%
M02*
