%TF.GenerationSoftware,Altium Limited,Altium Designer,20.1.14 (287)*%
G04 Layer_Physical_Order=1*
G04 Layer_Color=255*
%FSLAX25Y25*%
%MOIN*%
%TF.SameCoordinates,50D419B3-0610-4842-9EF4-231284EAA126*%
%TF.FilePolarity,Positive*%
%TF.FileFunction,Copper,L1,Top,Signal*%
%TF.Part,Single*%
G01*
G75*
%TA.AperFunction,SMDPad,CuDef*%
%ADD10R,0.03347X0.03347*%
%ADD11R,0.03347X0.03347*%
%ADD12O,0.07874X0.01378*%
%TA.AperFunction,Conductor*%
%ADD13C,0.02000*%
%ADD14C,0.01200*%
%TA.AperFunction,ComponentPad*%
%ADD15C,0.08858*%
%ADD16C,0.10039*%
%ADD17R,0.05906X0.05906*%
%ADD18C,0.05906*%
%ADD19R,0.05906X0.05906*%
%TA.AperFunction,ViaPad*%
%ADD20C,0.05000*%
G36*
X261500Y0D02*
X0Y0D01*
X0Y224500D01*
X261500Y224500D01*
X261500Y0D01*
X261500Y0D02*
G37*
%LPC*%
G36*
X89984Y194141D02*
X89984Y191484D01*
X92641Y191484D01*
X92267Y192386D01*
X91667Y193167D01*
X90886Y193767D01*
X89984Y194141D01*
X89984Y194141D02*
G37*
G36*
X88016Y194141D02*
X87114Y193767D01*
X86332Y193167D01*
X85733Y192386D01*
X85359Y191484D01*
X88016Y191484D01*
X88016Y194141D01*
X88016Y194141D02*
G37*
G36*
X88016Y189516D02*
X85359Y189516D01*
X85733Y188614D01*
X86332Y187832D01*
X87114Y187233D01*
X88016Y186859D01*
X88016Y189516D01*
X88016Y189516D02*
G37*
G36*
X34465Y182461D02*
X32988Y182461D01*
X32988Y180984D01*
X34465Y180984D01*
X34465Y182461D01*
X34465Y182461D02*
G37*
G36*
X132984Y181461D02*
X132984Y179984D01*
X134461Y179984D01*
X134461Y181461D01*
X132984Y181461D01*
X132984Y181461D02*
G37*
G36*
X34465Y179016D02*
X32988Y179016D01*
X32988Y177539D01*
X34465Y177539D01*
X34465Y179016D01*
X34465Y179016D02*
G37*
G36*
X134461Y178016D02*
X132984Y178016D01*
X132984Y176539D01*
X134461Y176539D01*
X134461Y178016D01*
X134461Y178016D02*
G37*
G36*
X104484Y175651D02*
X104484Y173484D01*
X106651Y173484D01*
X106371Y174158D01*
X105845Y174845D01*
X105158Y175372D01*
X104484Y175651D01*
X104484Y175651D02*
G37*
G36*
X102516Y175651D02*
X101842Y175372D01*
X101155Y174845D01*
X100628Y174158D01*
X100349Y173484D01*
X102516Y173484D01*
X102516Y175651D01*
X102516Y175651D02*
G37*
G36*
X133035Y172461D02*
X133035Y170984D01*
X134512Y170984D01*
X134512Y172461D01*
X133035Y172461D01*
X133035Y172461D02*
G37*
G36*
X147484Y171651D02*
X147484Y169484D01*
X149651Y169484D01*
X149372Y170158D01*
X148845Y170845D01*
X148158Y171371D01*
X147484Y171651D01*
X147484Y171651D02*
G37*
G36*
X145516Y171651D02*
X144842Y171371D01*
X144155Y170845D01*
X143629Y170158D01*
X143349Y169484D01*
X145516Y169484D01*
X145516Y171651D01*
X145516Y171651D02*
G37*
G36*
X106651Y171516D02*
X104484Y171516D01*
X104484Y169349D01*
X105158Y169629D01*
X105845Y170155D01*
X106371Y170842D01*
X106651Y171516D01*
X106651Y171516D02*
G37*
G36*
X102516Y171516D02*
X100349Y171516D01*
X100628Y170842D01*
X101155Y170155D01*
X101842Y169629D01*
X102516Y169349D01*
X102516Y171516D01*
X102516Y171516D02*
G37*
G36*
X86961Y170512D02*
X85484Y170512D01*
X85484Y169035D01*
X86961Y169035D01*
X86961Y170512D01*
X86961Y170512D02*
G37*
G36*
X83516Y170512D02*
X82039Y170512D01*
X82039Y169035D01*
X83516Y169035D01*
X83516Y170512D01*
X83516Y170512D02*
G37*
G36*
X134512Y169016D02*
X133035Y169016D01*
X133035Y167539D01*
X134512Y167539D01*
X134512Y169016D01*
X134512Y169016D02*
G37*
G36*
X149651Y167516D02*
X147484Y167516D01*
X147484Y165349D01*
X148158Y165629D01*
X148845Y166155D01*
X149372Y166842D01*
X149651Y167516D01*
X149651Y167516D02*
G37*
G36*
X145516Y167516D02*
X143349Y167516D01*
X143629Y166842D01*
X144155Y166155D01*
X144842Y165629D01*
X145516Y165349D01*
X145516Y167516D01*
X145516Y167516D02*
G37*
G36*
X133035Y162961D02*
X133035Y161484D01*
X134512Y161484D01*
X134512Y162961D01*
X133035Y162961D01*
X133035Y162961D02*
G37*
G36*
X32484Y162641D02*
X32484Y159984D01*
X35141Y159984D01*
X34767Y160886D01*
X34168Y161668D01*
X33386Y162267D01*
X32484Y162641D01*
X32484Y162641D02*
G37*
G36*
X30516Y162641D02*
X29614Y162267D01*
X28833Y161668D01*
X28233Y160886D01*
X27859Y159984D01*
X30516Y159984D01*
X30516Y162641D01*
X30516Y162641D02*
G37*
G36*
X134512Y159516D02*
X133035Y159516D01*
X133035Y158039D01*
X134512Y158039D01*
X134512Y159516D01*
X134512Y159516D02*
G37*
G36*
X104461Y158012D02*
X102984Y158012D01*
X102984Y156535D01*
X104461Y156535D01*
X104461Y158012D01*
X104461Y158012D02*
G37*
G36*
X101016Y158012D02*
X99539Y158012D01*
X99539Y156535D01*
X101016Y156535D01*
X101016Y158012D01*
X101016Y158012D02*
G37*
G36*
X35141Y158016D02*
X32484Y158016D01*
X32484Y155359D01*
X33386Y155733D01*
X34168Y156333D01*
X34767Y157114D01*
X35141Y158016D01*
X35141Y158016D02*
G37*
G36*
X30516Y158016D02*
X27859Y158016D01*
X28233Y157114D01*
X28833Y156333D01*
X29614Y155733D01*
X30516Y155359D01*
X30516Y158016D01*
X30516Y158016D02*
G37*
G36*
X207984Y140141D02*
X207984Y137484D01*
X210641Y137484D01*
X210267Y138386D01*
X209667Y139167D01*
X208886Y139767D01*
X207984Y140141D01*
X207984Y140141D02*
G37*
G36*
X206016Y140141D02*
X205114Y139767D01*
X204332Y139167D01*
X203733Y138386D01*
X203359Y137484D01*
X206016Y137484D01*
X206016Y140141D01*
X206016Y140141D02*
G37*
G36*
X164984Y139151D02*
X164984Y136984D01*
X167151Y136984D01*
X166872Y137658D01*
X166345Y138345D01*
X165658Y138872D01*
X164984Y139151D01*
X164984Y139151D02*
G37*
G36*
X163016Y139151D02*
X162342Y138872D01*
X161655Y138345D01*
X161128Y137658D01*
X160849Y136984D01*
X163016Y136984D01*
X163016Y139151D01*
X163016Y139151D02*
G37*
G36*
X26465Y136461D02*
X24988Y136461D01*
X24988Y134984D01*
X26465Y134984D01*
X26465Y136461D01*
X26465Y136461D02*
G37*
G36*
X210641Y135516D02*
X207984Y135516D01*
X207984Y132859D01*
X208886Y133233D01*
X209667Y133833D01*
X210267Y134614D01*
X210641Y135516D01*
X210641Y135516D02*
G37*
G36*
X206016Y135516D02*
X203359Y135516D01*
X203733Y134614D01*
X204332Y133833D01*
X205114Y133233D01*
X206016Y132859D01*
X206016Y135516D01*
X206016Y135516D02*
G37*
G36*
X167151Y135016D02*
X164984Y135016D01*
X164984Y132849D01*
X165658Y133128D01*
X166345Y133655D01*
X166872Y134342D01*
X167151Y135016D01*
X167151Y135016D02*
G37*
G36*
X163016Y135016D02*
X160849Y135016D01*
X161128Y134342D01*
X161655Y133655D01*
X162342Y133128D01*
X163016Y132849D01*
X163016Y135016D01*
X163016Y135016D02*
G37*
G36*
X26465Y133016D02*
X24988Y133016D01*
X24988Y131539D01*
X26465Y131539D01*
X26465Y133016D01*
X26465Y133016D02*
G37*
G36*
X46122Y197173D02*
X45697Y197173D01*
X40776Y197173D01*
X40776Y191827D01*
X41225Y191827D01*
X41225Y183794D01*
X40104Y182673D01*
X39002Y182673D01*
X38878Y182673D01*
X37785Y182461D01*
X37697Y182461D01*
X36433Y182461D01*
X36433Y180000D01*
X36433Y177539D01*
X37785Y177539D01*
X38878Y177327D01*
X39302Y176270D01*
X39302Y162296D01*
X38681Y161819D01*
X38047Y160993D01*
X37649Y160032D01*
X37513Y159000D01*
X37649Y157968D01*
X38047Y157007D01*
X38681Y156181D01*
X39507Y155547D01*
X40468Y155149D01*
X41500Y155013D01*
X42532Y155149D01*
X43493Y155547D01*
X44319Y156181D01*
X44953Y157007D01*
X45351Y157968D01*
X45487Y159000D01*
X45351Y160032D01*
X44953Y160993D01*
X44319Y161819D01*
X43749Y162256D01*
X43749Y177327D01*
X44224Y177327D01*
X44224Y179528D01*
X45021Y180325D01*
X45021Y180325D01*
X45503Y181047D01*
X45673Y181898D01*
X45673Y181898D01*
X45673Y190656D01*
X46146Y191125D01*
X47327Y190633D01*
X47327Y182398D01*
X47327Y182398D01*
X47497Y181547D01*
X47979Y180825D01*
X49276Y179528D01*
X49276Y177327D01*
X49276Y177327D01*
X49276Y162276D01*
X48681Y161819D01*
X48047Y160993D01*
X47649Y160032D01*
X47513Y159000D01*
X47649Y157968D01*
X48047Y157007D01*
X48681Y156181D01*
X49507Y155547D01*
X50468Y155149D01*
X51500Y155013D01*
X52532Y155149D01*
X53493Y155547D01*
X54319Y156181D01*
X54953Y157007D01*
X55351Y157968D01*
X55487Y159000D01*
X55351Y160032D01*
X54953Y160993D01*
X54319Y161819D01*
X53724Y162276D01*
X53724Y176492D01*
X54559Y177327D01*
X55378Y177327D01*
X55803Y177327D01*
X57579Y177327D01*
X59276Y175630D01*
X59276Y162953D01*
X57547Y162953D01*
X57547Y155047D01*
X65453Y155047D01*
X65453Y162953D01*
X63724Y162953D01*
X63724Y176551D01*
X63724Y176551D01*
X63715Y176595D01*
X64617Y177776D01*
X88500Y177776D01*
X88500Y177776D01*
X89351Y177945D01*
X90073Y178428D01*
X98256Y186611D01*
X99000Y186513D01*
X100032Y186649D01*
X100993Y187047D01*
X101819Y187681D01*
X102276Y188276D01*
X105047Y188276D01*
X105047Y186547D01*
X112953Y186547D01*
X112953Y188276D01*
X116913Y188276D01*
X122613Y182577D01*
X123224Y181673D01*
X123224Y181673D01*
X123224Y181673D01*
X123224Y176327D01*
X123699Y176327D01*
X123699Y172673D01*
X123276Y172673D01*
X123276Y167327D01*
X123725Y167327D01*
X123725Y163173D01*
X123276Y163173D01*
X123276Y157827D01*
X123276Y157827D01*
X123412Y156646D01*
X112216Y145449D01*
X111822Y144860D01*
X111684Y144165D01*
X111684Y128000D01*
X111684Y123252D01*
X110527Y122096D01*
X108109Y122096D01*
X107053Y122839D01*
X106922Y123498D01*
X106548Y124056D01*
X106548Y124180D01*
X106922Y124739D01*
X107053Y125398D01*
X106922Y126057D01*
X106548Y126615D01*
X106548Y126739D01*
X106922Y127298D01*
X107053Y127957D01*
X106922Y128616D01*
X106582Y129236D01*
X106922Y129857D01*
X107053Y130516D01*
X106922Y131175D01*
X106582Y131795D01*
X106922Y132416D01*
X107053Y133075D01*
X106922Y133734D01*
X106582Y134354D01*
X106922Y134975D01*
X107053Y135634D01*
X106922Y136293D01*
X106548Y136852D01*
X105990Y137225D01*
X105331Y137356D01*
X103816Y137356D01*
X103816Y146776D01*
X104673Y146776D01*
X104673Y151997D01*
X104673Y152122D01*
X104461Y153215D01*
X104461Y153303D01*
X104461Y154567D01*
X102000Y154567D01*
X99539Y154567D01*
X99539Y153215D01*
X99327Y152122D01*
X99327Y151997D01*
X99327Y146776D01*
X100184Y146776D01*
X100184Y137356D01*
X98835Y137356D01*
X98176Y137225D01*
X97617Y136852D01*
X97325Y136414D01*
X97036Y136256D01*
X95996Y136073D01*
X92388Y139680D01*
X92304Y140101D01*
X91822Y140823D01*
X83645Y149000D01*
X86072Y151427D01*
X86072Y151427D01*
X86554Y152149D01*
X86724Y153000D01*
X86724Y159276D01*
X87173Y159276D01*
X87173Y164497D01*
X87173Y164622D01*
X86961Y165715D01*
X86961Y165803D01*
X86961Y167067D01*
X84500Y167067D01*
X82039Y167067D01*
X82039Y165715D01*
X81827Y164622D01*
X81827Y164497D01*
X81827Y159276D01*
X82276Y159276D01*
X82276Y153921D01*
X79579Y151224D01*
X64776Y151224D01*
X64319Y151819D01*
X63493Y152453D01*
X62532Y152851D01*
X61500Y152987D01*
X60468Y152851D01*
X59507Y152453D01*
X58681Y151819D01*
X58224Y151224D01*
X54776Y151224D01*
X54319Y151819D01*
X53493Y152453D01*
X52532Y152851D01*
X51500Y152987D01*
X50468Y152851D01*
X49507Y152453D01*
X48681Y151819D01*
X48224Y151224D01*
X44776Y151224D01*
X44319Y151819D01*
X43493Y152453D01*
X42532Y152851D01*
X41500Y152987D01*
X40468Y152851D01*
X39507Y152453D01*
X38681Y151819D01*
X38224Y151224D01*
X34776Y151224D01*
X34319Y151819D01*
X33493Y152453D01*
X32532Y152851D01*
X31500Y152987D01*
X30468Y152851D01*
X29507Y152453D01*
X28681Y151819D01*
X28047Y150993D01*
X27649Y150032D01*
X27513Y149000D01*
X27649Y147968D01*
X28047Y147007D01*
X28681Y146181D01*
X29507Y145547D01*
X30468Y145149D01*
X31500Y145013D01*
X32532Y145149D01*
X33493Y145547D01*
X34319Y146181D01*
X34776Y146776D01*
X38224Y146776D01*
X38681Y146181D01*
X39507Y145547D01*
X40468Y145149D01*
X41500Y145013D01*
X42532Y145149D01*
X43493Y145547D01*
X44319Y146181D01*
X44776Y146776D01*
X48224Y146776D01*
X48681Y146181D01*
X49507Y145547D01*
X50468Y145149D01*
X51500Y145013D01*
X52532Y145149D01*
X53493Y145547D01*
X54319Y146181D01*
X54776Y146776D01*
X58224Y146776D01*
X58681Y146181D01*
X59507Y145547D01*
X60468Y145149D01*
X61500Y145013D01*
X62532Y145149D01*
X63493Y145547D01*
X64319Y146181D01*
X64776Y146776D01*
X79579Y146776D01*
X88678Y137678D01*
X89197Y137330D01*
X88736Y136218D01*
X88449Y136275D01*
X88449Y136275D01*
X59673Y136275D01*
X59673Y136724D01*
X57710Y136724D01*
X57000Y136866D01*
X56290Y136724D01*
X54327Y136724D01*
X54327Y136249D01*
X36224Y136249D01*
X36224Y136673D01*
X31003Y136673D01*
X30878Y136673D01*
X29785Y136461D01*
X29697Y136461D01*
X28433Y136461D01*
X28433Y134000D01*
X28433Y131539D01*
X29785Y131539D01*
X30878Y131327D01*
X31003Y131327D01*
X36224Y131327D01*
X36224Y131802D01*
X53158Y131802D01*
X53708Y130621D01*
X53332Y130173D01*
X53332Y130173D01*
X50783Y130173D01*
X49932Y130003D01*
X49211Y129521D01*
X49211Y129521D01*
X46225Y126536D01*
X45173Y126224D01*
X45173Y126224D01*
X39827Y126224D01*
X39827Y125677D01*
X34173Y125677D01*
X34173Y126224D01*
X28827Y126224D01*
X28827Y123707D01*
X28776Y123453D01*
X28827Y123198D01*
X28827Y121002D01*
X28827Y120878D01*
X29039Y119785D01*
X29039Y119697D01*
X29039Y118433D01*
X31500Y118433D01*
X33961Y118433D01*
X33961Y119785D01*
X34173Y120878D01*
X35261Y121229D01*
X39476Y121229D01*
X39827Y120878D01*
X40039Y119785D01*
X40039Y119697D01*
X40039Y118433D01*
X42500Y118433D01*
X44961Y118433D01*
X44961Y119785D01*
X45173Y120878D01*
X45500Y121229D01*
X45500Y121229D01*
X46287Y121229D01*
X46287Y121229D01*
X47138Y121398D01*
X47860Y121880D01*
X51705Y125725D01*
X54327Y125725D01*
X54327Y125276D01*
X59673Y125276D01*
X59673Y125733D01*
X71043Y125733D01*
X71894Y125902D01*
X72251Y126141D01*
X78529Y126141D01*
X78981Y125049D01*
X76269Y122337D01*
X75848Y122253D01*
X75126Y121771D01*
X66126Y112771D01*
X62524Y112771D01*
X62173Y113122D01*
X61961Y114215D01*
X61961Y114303D01*
X61961Y115567D01*
X59500Y115567D01*
X57039Y115567D01*
X57039Y114215D01*
X56827Y113122D01*
X55739Y112771D01*
X52382Y112771D01*
X51531Y112602D01*
X50809Y112120D01*
X50809Y112120D01*
X45914Y107224D01*
X40827Y107224D01*
X40827Y106775D01*
X34173Y106775D01*
X34173Y107224D01*
X28827Y107224D01*
X28827Y101878D01*
X28827Y101878D01*
X28827Y101122D01*
X28827Y101122D01*
X28827Y95776D01*
X34173Y95776D01*
X34173Y96225D01*
X40827Y96225D01*
X40827Y95776D01*
X46173Y95776D01*
X46173Y96276D01*
X56428Y96276D01*
X56827Y95878D01*
X57039Y94785D01*
X57039Y94697D01*
X57039Y93433D01*
X59500Y93433D01*
X61961Y93433D01*
X61961Y94785D01*
X62173Y95878D01*
X62787Y96229D01*
X63638Y96398D01*
X64360Y96880D01*
X75573Y108093D01*
X75573Y108093D01*
X76055Y108814D01*
X76221Y109653D01*
X87591Y121023D01*
X96056Y121023D01*
X97113Y120280D01*
X97244Y119621D01*
X97617Y119062D01*
X97444Y118297D01*
X97329Y117720D01*
X96273Y116977D01*
X89161Y116977D01*
X88466Y116839D01*
X87877Y116446D01*
X79023Y107591D01*
X78602Y107507D01*
X77880Y107025D01*
X77398Y106304D01*
X77229Y105453D01*
X77229Y85024D01*
X76878Y84673D01*
X75785Y84461D01*
X75697Y84461D01*
X74433Y84461D01*
X74433Y82000D01*
X74433Y79539D01*
X75785Y79539D01*
X76878Y79327D01*
X77278Y78260D01*
X77278Y74234D01*
X76122Y74173D01*
X75697Y74173D01*
X70776Y74173D01*
X70776Y72127D01*
X70634Y71417D01*
X70776Y70708D01*
X70776Y68827D01*
X71225Y68827D01*
X71225Y62173D01*
X70276Y62173D01*
X70276Y61724D01*
X62224Y61724D01*
X62224Y62173D01*
X57003Y62173D01*
X56878Y62173D01*
X55785Y61961D01*
X55697Y61961D01*
X54433Y61961D01*
X54433Y59500D01*
X54433Y57039D01*
X55785Y57039D01*
X56878Y56827D01*
X57003Y56827D01*
X62224Y56827D01*
X62224Y57276D01*
X70276Y57276D01*
X70276Y56827D01*
X70477Y56827D01*
X70477Y50282D01*
X69296Y49173D01*
X68697Y49173D01*
X63776Y49173D01*
X63776Y48724D01*
X56224Y48724D01*
X56224Y49173D01*
X51003Y49173D01*
X50878Y49173D01*
X49785Y48961D01*
X49697Y48961D01*
X48433Y48961D01*
X48433Y46500D01*
X48433Y44039D01*
X49785Y44039D01*
X50878Y43827D01*
X51003Y43827D01*
X56224Y43827D01*
X56224Y44276D01*
X63776Y44276D01*
X63776Y43827D01*
X64077Y43827D01*
X64221Y42646D01*
X45799Y24224D01*
X32455Y24224D01*
X32242Y24738D01*
X31372Y25872D01*
X30238Y26742D01*
X28917Y27289D01*
X27500Y27476D01*
X26083Y27289D01*
X24762Y26742D01*
X23628Y25872D01*
X22758Y24738D01*
X22211Y23417D01*
X22024Y22000D01*
X22211Y20583D01*
X22758Y19262D01*
X23628Y18128D01*
X24762Y17258D01*
X26083Y16711D01*
X27500Y16524D01*
X28917Y16711D01*
X30238Y17258D01*
X31372Y18128D01*
X32242Y19262D01*
X32455Y19776D01*
X46720Y19776D01*
X46720Y19776D01*
X47571Y19945D01*
X48293Y20427D01*
X68120Y40254D01*
X68120Y40254D01*
X68602Y40976D01*
X68771Y41827D01*
X68771Y41827D01*
X68771Y43648D01*
X69878Y43827D01*
X70303Y43827D01*
X75224Y43827D01*
X75224Y49173D01*
X74925Y49173D01*
X74925Y55758D01*
X76106Y56827D01*
X76803Y56827D01*
X81724Y56827D01*
X81724Y57276D01*
X83276Y57276D01*
X83276Y46500D01*
X83276Y46500D01*
X83445Y45649D01*
X83927Y44928D01*
X110927Y17928D01*
X110927Y17928D01*
X111649Y17445D01*
X112500Y17276D01*
X112500Y17276D01*
X124500Y17276D01*
X124500Y17276D01*
X125351Y17445D01*
X126073Y17928D01*
X136244Y28099D01*
X136244Y28099D01*
X136726Y28821D01*
X136895Y29672D01*
X136895Y29672D01*
X136895Y56828D01*
X136895Y56828D01*
X136726Y57679D01*
X136244Y58401D01*
X136244Y58401D01*
X108072Y86572D01*
X107351Y87055D01*
X106930Y87138D01*
X96848Y97221D01*
X96848Y100606D01*
X97124Y100815D01*
X98029Y101129D01*
X98259Y100976D01*
X98835Y100861D01*
X101098Y100861D01*
X101098Y102366D01*
X103067Y102366D01*
X103067Y100861D01*
X105331Y100861D01*
X105907Y100976D01*
X106395Y101302D01*
X106721Y101790D01*
X106836Y102366D01*
X107892Y103109D01*
X110323Y103109D01*
X111184Y102248D01*
X111184Y98000D01*
X111322Y97305D01*
X111716Y96716D01*
X120362Y88070D01*
X120446Y87649D01*
X120928Y86927D01*
X166928Y40927D01*
X166928Y40927D01*
X167649Y40445D01*
X168500Y40276D01*
X215500Y40276D01*
X215500Y40276D01*
X216351Y40445D01*
X217073Y40927D01*
X230072Y53927D01*
X230072Y53927D01*
X230555Y54649D01*
X230724Y55500D01*
X230724Y55500D01*
X230724Y157173D01*
X231173Y157173D01*
X231173Y162094D01*
X231173Y163276D01*
X231173Y163701D01*
X231173Y168622D01*
X230724Y168622D01*
X230724Y170953D01*
X230724Y170953D01*
X230555Y171804D01*
X230072Y172525D01*
X230072Y172525D01*
X214525Y188073D01*
X213804Y188555D01*
X212953Y188724D01*
X212953Y188724D01*
X210953Y188724D01*
X210953Y190453D01*
X203047Y190453D01*
X203047Y182547D01*
X210953Y182547D01*
X210953Y184029D01*
X212134Y184174D01*
X226276Y170032D01*
X226276Y168622D01*
X225827Y168622D01*
X225827Y163701D01*
X225827Y162520D01*
X225827Y162094D01*
X225827Y157173D01*
X226276Y157173D01*
X226276Y56421D01*
X214579Y44724D01*
X169421Y44724D01*
X124073Y90073D01*
X123351Y90554D01*
X122930Y90638D01*
X114816Y98752D01*
X114816Y103000D01*
X114678Y103695D01*
X114284Y104284D01*
X112359Y106209D01*
X112352Y106283D01*
X114784Y108716D01*
X115178Y109305D01*
X115316Y110000D01*
X115316Y122534D01*
X116102Y123582D01*
X119108Y123582D01*
X120164Y122839D01*
X120279Y122263D01*
X120452Y121497D01*
X120078Y120939D01*
X119947Y120280D01*
X120078Y119621D01*
X120418Y119000D01*
X120078Y118379D01*
X119947Y117720D01*
X120078Y117061D01*
X120452Y116503D01*
X120452Y116379D01*
X120078Y115820D01*
X119947Y115161D01*
X120078Y114502D01*
X120452Y113944D01*
X120452Y113820D01*
X120078Y113261D01*
X119947Y112602D01*
X120078Y111943D01*
X120452Y111385D01*
X120452Y111261D01*
X120078Y110702D01*
X119947Y110043D01*
X120078Y109384D01*
X120452Y108826D01*
X120452Y108702D01*
X120078Y108143D01*
X119947Y107484D01*
X120078Y106825D01*
X120452Y106266D01*
X120452Y106143D01*
X120078Y105584D01*
X119947Y104925D01*
X120078Y104266D01*
X120452Y103708D01*
X120452Y103584D01*
X120078Y103025D01*
X119947Y102366D01*
X120078Y101707D01*
X120452Y101148D01*
X121010Y100775D01*
X121669Y100644D01*
X123101Y100644D01*
X123101Y100083D01*
X123240Y99388D01*
X123633Y98799D01*
X130112Y92320D01*
X130195Y91899D01*
X130677Y91177D01*
X166928Y54927D01*
X166928Y54927D01*
X167649Y54445D01*
X168500Y54276D01*
X168500Y54276D01*
X177276Y54276D01*
X177276Y53827D01*
X182197Y53827D01*
X183378Y53827D01*
X183803Y53827D01*
X188724Y53827D01*
X188724Y54276D01*
X203724Y54276D01*
X204181Y53681D01*
X205007Y53047D01*
X205968Y52649D01*
X207000Y52513D01*
X208032Y52649D01*
X208993Y53047D01*
X209819Y53681D01*
X210453Y54507D01*
X210851Y55468D01*
X210987Y56500D01*
X210851Y57532D01*
X210453Y58493D01*
X209819Y59319D01*
X208993Y59953D01*
X208032Y60351D01*
X207000Y60487D01*
X205968Y60351D01*
X205007Y59953D01*
X204181Y59319D01*
X203724Y58724D01*
X188724Y58724D01*
X188724Y59173D01*
X183803Y59173D01*
X182622Y59173D01*
X182197Y59173D01*
X177276Y59173D01*
X177276Y58724D01*
X169421Y58724D01*
X133823Y94323D01*
X133101Y94805D01*
X132680Y94888D01*
X128005Y99563D01*
X128523Y100715D01*
X128824Y100775D01*
X129383Y101148D01*
X129475Y101286D01*
X130681Y101551D01*
X130921Y101510D01*
X148362Y84070D01*
X148445Y83649D01*
X148927Y82928D01*
X166928Y64928D01*
X166928Y64928D01*
X167649Y64446D01*
X168500Y64276D01*
X177276Y64276D01*
X177276Y63827D01*
X182197Y63827D01*
X183378Y63827D01*
X183803Y63827D01*
X188724Y63827D01*
X188724Y64276D01*
X203724Y64276D01*
X204181Y63681D01*
X205007Y63047D01*
X205968Y62649D01*
X207000Y62513D01*
X208032Y62649D01*
X208993Y63047D01*
X209819Y63681D01*
X210453Y64507D01*
X210851Y65468D01*
X210987Y66500D01*
X210851Y67532D01*
X210453Y68493D01*
X209819Y69319D01*
X208993Y69953D01*
X208032Y70351D01*
X207000Y70487D01*
X205968Y70351D01*
X205007Y69953D01*
X204181Y69319D01*
X203724Y68724D01*
X188724Y68724D01*
X188724Y69173D01*
X183803Y69173D01*
X182622Y69173D01*
X182197Y69173D01*
X177276Y69173D01*
X177276Y68724D01*
X169421Y68724D01*
X165050Y73095D01*
X165539Y74276D01*
X177276Y74276D01*
X177276Y73827D01*
X182197Y73827D01*
X183378Y73827D01*
X183803Y73827D01*
X188724Y73827D01*
X188724Y74276D01*
X203724Y74276D01*
X204181Y73681D01*
X205007Y73047D01*
X205968Y72649D01*
X207000Y72513D01*
X208032Y72649D01*
X208993Y73047D01*
X209819Y73681D01*
X210453Y74507D01*
X210851Y75468D01*
X210987Y76500D01*
X210851Y77532D01*
X210453Y78493D01*
X209819Y79319D01*
X208993Y79953D01*
X208032Y80351D01*
X207000Y80487D01*
X205968Y80351D01*
X205007Y79953D01*
X204181Y79319D01*
X203724Y78724D01*
X188724Y78724D01*
X188724Y79173D01*
X183803Y79173D01*
X182622Y79173D01*
X182197Y79173D01*
X177276Y79173D01*
X177276Y78724D01*
X165421Y78724D01*
X160967Y83178D01*
X161458Y84189D01*
X161539Y84276D01*
X177224Y84276D01*
X177224Y83827D01*
X182146Y83827D01*
X183327Y83827D01*
X183752Y83827D01*
X188673Y83827D01*
X188673Y84276D01*
X203724Y84276D01*
X204181Y83681D01*
X205007Y83047D01*
X205968Y82649D01*
X207000Y82513D01*
X208032Y82649D01*
X208993Y83047D01*
X209819Y83681D01*
X210453Y84507D01*
X210851Y85468D01*
X210987Y86500D01*
X210851Y87532D01*
X210453Y88493D01*
X209819Y89319D01*
X208993Y89953D01*
X208032Y90351D01*
X207000Y90487D01*
X205968Y90351D01*
X205007Y89953D01*
X204181Y89319D01*
X203724Y88724D01*
X188673Y88724D01*
X188673Y89173D01*
X183752Y89173D01*
X182571Y89173D01*
X182146Y89173D01*
X177224Y89173D01*
X177224Y88724D01*
X162421Y88724D01*
X152073Y99072D01*
X151351Y99555D01*
X150930Y99638D01*
X140873Y109695D01*
X141325Y110786D01*
X142645Y110786D01*
X148811Y104621D01*
X148894Y104200D01*
X149376Y103479D01*
X157928Y94928D01*
X157928Y94928D01*
X158649Y94446D01*
X159500Y94276D01*
X177276Y94276D01*
X177276Y93827D01*
X182197Y93827D01*
X183378Y93827D01*
X183803Y93827D01*
X188724Y93827D01*
X188724Y94276D01*
X203724Y94276D01*
X204181Y93681D01*
X205007Y93047D01*
X205968Y92649D01*
X207000Y92513D01*
X208032Y92649D01*
X208993Y93047D01*
X209819Y93681D01*
X210453Y94507D01*
X210851Y95468D01*
X210987Y96500D01*
X210851Y97532D01*
X210453Y98493D01*
X209819Y99319D01*
X208993Y99953D01*
X208032Y100351D01*
X207000Y100487D01*
X205968Y100351D01*
X205007Y99953D01*
X204181Y99319D01*
X203724Y98724D01*
X188724Y98724D01*
X188724Y99173D01*
X183803Y99173D01*
X182622Y99173D01*
X182197Y99173D01*
X179703Y99173D01*
X179449Y99224D01*
X179194Y99173D01*
X177276Y99173D01*
X177276Y98724D01*
X160421Y98724D01*
X155967Y103178D01*
X156458Y104189D01*
X156539Y104276D01*
X177276Y104276D01*
X177276Y103827D01*
X182197Y103827D01*
X183378Y103827D01*
X183803Y103827D01*
X188724Y103827D01*
X188724Y104276D01*
X203724Y104276D01*
X204181Y103681D01*
X205007Y103047D01*
X205968Y102649D01*
X207000Y102513D01*
X208032Y102649D01*
X208993Y103047D01*
X209819Y103681D01*
X210453Y104507D01*
X210851Y105468D01*
X210987Y106500D01*
X210851Y107532D01*
X210453Y108493D01*
X209819Y109319D01*
X208993Y109953D01*
X208032Y110351D01*
X207000Y110487D01*
X205968Y110351D01*
X205007Y109953D01*
X204181Y109319D01*
X203724Y108724D01*
X188724Y108724D01*
X188724Y109173D01*
X183803Y109173D01*
X182622Y109173D01*
X182197Y109173D01*
X177276Y109173D01*
X177276Y108724D01*
X157421Y108724D01*
X153492Y112653D01*
X152831Y113095D01*
X152816Y113183D01*
X153298Y114276D01*
X177276Y114276D01*
X177276Y113827D01*
X182197Y113827D01*
X183378Y113827D01*
X183803Y113827D01*
X188724Y113827D01*
X188724Y114276D01*
X203724Y114276D01*
X204181Y113681D01*
X205007Y113047D01*
X205968Y112649D01*
X207000Y112513D01*
X208032Y112649D01*
X208993Y113047D01*
X209819Y113681D01*
X210453Y114507D01*
X210851Y115468D01*
X210987Y116500D01*
X210851Y117532D01*
X210453Y118493D01*
X209819Y119319D01*
X208993Y119953D01*
X208032Y120351D01*
X207000Y120487D01*
X205968Y120351D01*
X205007Y119953D01*
X204181Y119319D01*
X203724Y118724D01*
X188724Y118724D01*
X188724Y119173D01*
X183803Y119173D01*
X182622Y119173D01*
X182197Y119173D01*
X177276Y119173D01*
X177276Y118724D01*
X153421Y118724D01*
X152852Y119293D01*
X152131Y119775D01*
X151280Y119944D01*
X150429Y119775D01*
X150072Y119536D01*
X147148Y119536D01*
X146696Y120628D01*
X150752Y124684D01*
X177276Y124684D01*
X177276Y123827D01*
X182197Y123827D01*
X183378Y123827D01*
X183803Y123827D01*
X188724Y123827D01*
X188724Y124276D01*
X203724Y124276D01*
X204181Y123681D01*
X205007Y123047D01*
X205968Y122649D01*
X207000Y122513D01*
X208032Y122649D01*
X208993Y123047D01*
X209819Y123681D01*
X210453Y124507D01*
X210851Y125468D01*
X210987Y126500D01*
X210851Y127532D01*
X210453Y128493D01*
X209819Y129319D01*
X208993Y129953D01*
X208032Y130351D01*
X207000Y130487D01*
X205968Y130351D01*
X205007Y129953D01*
X204181Y129319D01*
X203724Y128724D01*
X188724Y128724D01*
X188724Y129173D01*
X183803Y129173D01*
X182622Y129173D01*
X182197Y129173D01*
X177276Y129173D01*
X177276Y128316D01*
X150000Y128316D01*
X149305Y128178D01*
X148716Y127784D01*
X143027Y122096D01*
X130727Y122096D01*
X129671Y122839D01*
X129556Y123415D01*
X129383Y124180D01*
X129756Y124739D01*
X129887Y125398D01*
X130944Y126141D01*
X138957Y126141D01*
X139652Y126279D01*
X140241Y126672D01*
X145930Y132362D01*
X146351Y132446D01*
X147073Y132928D01*
X158421Y144276D01*
X177276Y144276D01*
X177276Y143827D01*
X182197Y143827D01*
X183378Y143827D01*
X183803Y143827D01*
X188724Y143827D01*
X188724Y144276D01*
X203724Y144276D01*
X204181Y143681D01*
X205007Y143047D01*
X205968Y142649D01*
X207000Y142513D01*
X208032Y142649D01*
X208993Y143047D01*
X209819Y143681D01*
X210453Y144507D01*
X210851Y145468D01*
X210987Y146500D01*
X210851Y147532D01*
X210453Y148493D01*
X209819Y149319D01*
X208993Y149953D01*
X208032Y150351D01*
X207000Y150487D01*
X205968Y150351D01*
X205007Y149953D01*
X204181Y149319D01*
X203724Y148724D01*
X188724Y148724D01*
X188724Y149173D01*
X183803Y149173D01*
X182622Y149173D01*
X182197Y149173D01*
X177276Y149173D01*
X177276Y148724D01*
X159380Y148724D01*
X158928Y149815D01*
X163390Y154276D01*
X177276Y154276D01*
X177276Y153827D01*
X182197Y153827D01*
X183378Y153827D01*
X183803Y153827D01*
X188724Y153827D01*
X188724Y154276D01*
X203724Y154276D01*
X204181Y153681D01*
X205007Y153047D01*
X205968Y152649D01*
X207000Y152513D01*
X208032Y152649D01*
X208993Y153047D01*
X209819Y153681D01*
X210453Y154507D01*
X210851Y155468D01*
X210987Y156500D01*
X210851Y157532D01*
X210453Y158493D01*
X209819Y159319D01*
X208993Y159953D01*
X208032Y160351D01*
X207000Y160487D01*
X205968Y160351D01*
X205007Y159953D01*
X204181Y159319D01*
X203724Y158724D01*
X188724Y158724D01*
X188724Y159173D01*
X183803Y159173D01*
X182622Y159173D01*
X182197Y159173D01*
X177276Y159173D01*
X177276Y158724D01*
X164412Y158724D01*
X163960Y159815D01*
X168421Y164276D01*
X177276Y164276D01*
X177276Y163827D01*
X182197Y163827D01*
X183378Y163827D01*
X183803Y163827D01*
X188724Y163827D01*
X188724Y164276D01*
X203724Y164276D01*
X204181Y163681D01*
X205007Y163047D01*
X205968Y162649D01*
X207000Y162513D01*
X208032Y162649D01*
X208993Y163047D01*
X209819Y163681D01*
X210453Y164507D01*
X210851Y165468D01*
X210987Y166500D01*
X210851Y167532D01*
X210453Y168493D01*
X209819Y169319D01*
X208993Y169953D01*
X208032Y170351D01*
X207000Y170487D01*
X205968Y170351D01*
X205007Y169953D01*
X204181Y169319D01*
X203724Y168724D01*
X188724Y168724D01*
X188724Y169173D01*
X183803Y169173D01*
X182622Y169173D01*
X182197Y169173D01*
X177276Y169173D01*
X177276Y168724D01*
X168772Y168724D01*
X168282Y169905D01*
X172653Y174276D01*
X177276Y174276D01*
X177276Y173827D01*
X182197Y173827D01*
X183378Y173827D01*
X183803Y173827D01*
X188724Y173827D01*
X188724Y174276D01*
X203724Y174276D01*
X204181Y173681D01*
X205007Y173047D01*
X205968Y172649D01*
X207000Y172513D01*
X208032Y172649D01*
X208993Y173047D01*
X209819Y173681D01*
X210453Y174507D01*
X210851Y175468D01*
X210987Y176500D01*
X210851Y177532D01*
X210453Y178493D01*
X209819Y179319D01*
X208993Y179953D01*
X208032Y180351D01*
X207000Y180487D01*
X205968Y180351D01*
X205007Y179953D01*
X204181Y179319D01*
X203724Y178724D01*
X188724Y178724D01*
X188724Y179173D01*
X183803Y179173D01*
X182622Y179173D01*
X182197Y179173D01*
X177276Y179173D01*
X177276Y178724D01*
X171732Y178724D01*
X171732Y178724D01*
X170881Y178554D01*
X170160Y178073D01*
X170160Y178073D01*
X136427Y144340D01*
X135945Y143619D01*
X135862Y143198D01*
X130114Y137450D01*
X124917Y137450D01*
X124445Y137356D01*
X121669Y137356D01*
X121010Y137225D01*
X120452Y136852D01*
X120078Y136293D01*
X119947Y135634D01*
X120078Y134975D01*
X120452Y134416D01*
X120452Y134292D01*
X120078Y133734D01*
X119947Y133075D01*
X120078Y132416D01*
X120452Y131857D01*
X120452Y131734D01*
X120078Y131175D01*
X119947Y130516D01*
X120078Y129857D01*
X120452Y129298D01*
X120452Y129174D01*
X120078Y128616D01*
X119947Y127957D01*
X118891Y127214D01*
X116855Y127214D01*
X115316Y128752D01*
X115316Y143413D01*
X127331Y155429D01*
X127725Y156018D01*
X127744Y156114D01*
X128102Y156649D01*
X128271Y157500D01*
X128598Y157827D01*
X128622Y157827D01*
X129715Y158039D01*
X129803Y158039D01*
X131067Y158039D01*
X131067Y160500D01*
X131067Y162961D01*
X129715Y162961D01*
X128622Y163173D01*
X128173Y164220D01*
X128173Y166877D01*
X128622Y167327D01*
X129715Y167539D01*
X129803Y167539D01*
X131067Y167539D01*
X131067Y170000D01*
X131067Y172461D01*
X129715Y172461D01*
X128622Y172673D01*
X128147Y173709D01*
X128147Y175903D01*
X128571Y176327D01*
X129664Y176539D01*
X129752Y176539D01*
X131016Y176539D01*
X131016Y179000D01*
X131016Y181461D01*
X129664Y181461D01*
X128571Y181673D01*
X128271Y182287D01*
X128102Y183138D01*
X127620Y183860D01*
X119407Y192072D01*
X118686Y192554D01*
X117835Y192724D01*
X117834Y192724D01*
X112953Y192724D01*
X112953Y194453D01*
X105047Y194453D01*
X105047Y192724D01*
X102276Y192724D01*
X101819Y193319D01*
X100993Y193953D01*
X100032Y194351D01*
X99000Y194487D01*
X97968Y194351D01*
X97007Y193953D01*
X96181Y193319D01*
X95547Y192493D01*
X95149Y191532D01*
X95013Y190500D01*
X95111Y189756D01*
X93053Y187698D01*
X92163Y188479D01*
X92267Y188614D01*
X92641Y189516D01*
X89984Y189516D01*
X89984Y186859D01*
X90886Y187233D01*
X91022Y187337D01*
X91802Y186447D01*
X87579Y182224D01*
X60724Y182224D01*
X60724Y182673D01*
X55803Y182673D01*
X54622Y182673D01*
X54197Y182673D01*
X52421Y182673D01*
X51775Y183319D01*
X51775Y191827D01*
X52224Y191827D01*
X52224Y197173D01*
X47303Y197173D01*
X46122Y197173D01*
X46122Y197173D02*
G37*
G36*
X61961Y119012D02*
X60484Y119012D01*
X60484Y117535D01*
X61961Y117535D01*
X61961Y119012D01*
X61961Y119012D02*
G37*
G36*
X58516Y119012D02*
X57039Y119012D01*
X57039Y117535D01*
X58516Y117535D01*
X58516Y119012D01*
X58516Y119012D02*
G37*
G36*
X44961Y116465D02*
X43484Y116465D01*
X43484Y114988D01*
X44961Y114988D01*
X44961Y116465D01*
X44961Y116465D02*
G37*
G36*
X41516Y116465D02*
X40039Y116465D01*
X40039Y114988D01*
X41516Y114988D01*
X41516Y116465D01*
X41516Y116465D02*
G37*
G36*
X33961Y116465D02*
X32484Y116465D01*
X32484Y114988D01*
X33961Y114988D01*
X33961Y116465D01*
X33961Y116465D02*
G37*
G36*
X30516Y116465D02*
X29039Y116465D01*
X29039Y114988D01*
X30516Y114988D01*
X30516Y116465D01*
X30516Y116465D02*
G37*
G36*
X61961Y91465D02*
X60484Y91465D01*
X60484Y89988D01*
X61961Y89988D01*
X61961Y91465D01*
X61961Y91465D02*
G37*
G36*
X58516Y91465D02*
X57039Y91465D01*
X57039Y89988D01*
X58516Y89988D01*
X58516Y91465D01*
X58516Y91465D02*
G37*
G36*
X72465Y84461D02*
X70988Y84461D01*
X70988Y82984D01*
X72465Y82984D01*
X72465Y84461D01*
X72465Y84461D02*
G37*
G36*
X72465Y81016D02*
X70988Y81016D01*
X70988Y79539D01*
X72465Y79539D01*
X72465Y81016D01*
X72465Y81016D02*
G37*
G36*
X220984Y66151D02*
X220984Y63984D01*
X223151Y63984D01*
X222871Y64658D01*
X222345Y65345D01*
X221658Y65872D01*
X220984Y66151D01*
X220984Y66151D02*
G37*
G36*
X219016Y66151D02*
X218342Y65872D01*
X217655Y65345D01*
X217128Y64658D01*
X216849Y63984D01*
X219016Y63984D01*
X219016Y66151D01*
X219016Y66151D02*
G37*
G36*
X52464Y61961D02*
X50988Y61961D01*
X50988Y60484D01*
X52464Y60484D01*
X52464Y61961D01*
X52464Y61961D02*
G37*
G36*
X223151Y62016D02*
X220984Y62016D01*
X220984Y59849D01*
X221658Y60128D01*
X222345Y60655D01*
X222871Y61342D01*
X223151Y62016D01*
X223151Y62016D02*
G37*
G36*
X219016Y62016D02*
X216849Y62016D01*
X217128Y61342D01*
X217655Y60655D01*
X218342Y60128D01*
X219016Y59849D01*
X219016Y62016D01*
X219016Y62016D02*
G37*
G36*
X52464Y58516D02*
X50988Y58516D01*
X50988Y57039D01*
X52464Y57039D01*
X52464Y58516D01*
X52464Y58516D02*
G37*
G36*
X46464Y48961D02*
X44988Y48961D01*
X44988Y47484D01*
X46464Y47484D01*
X46464Y48961D01*
X46464Y48961D02*
G37*
G36*
X46464Y45516D02*
X44988Y45516D01*
X44988Y44039D01*
X46464Y44039D01*
X46464Y45516D01*
X46464Y45516D02*
G37*
G36*
X38327Y37570D02*
X38327Y32827D01*
X43070Y32827D01*
X43000Y33358D01*
X42415Y34771D01*
X41484Y35984D01*
X40271Y36915D01*
X38859Y37500D01*
X38327Y37570D01*
X38327Y37570D02*
G37*
G36*
X36358Y37570D02*
X35827Y37500D01*
X34414Y36915D01*
X33201Y35984D01*
X32270Y34771D01*
X31685Y33358D01*
X31615Y32827D01*
X36358Y32827D01*
X36358Y37570D01*
X36358Y37570D02*
G37*
G36*
X18642Y37570D02*
X18642Y32827D01*
X23385Y32827D01*
X23315Y33358D01*
X22730Y34771D01*
X21799Y35984D01*
X20586Y36915D01*
X19173Y37500D01*
X18642Y37570D01*
X18642Y37570D02*
G37*
G36*
X16673Y37570D02*
X16141Y37500D01*
X14729Y36915D01*
X13516Y35984D01*
X12585Y34771D01*
X12000Y33358D01*
X11930Y32827D01*
X16673Y32827D01*
X16673Y37570D01*
X16673Y37570D02*
G37*
G36*
X173984Y30151D02*
X173984Y27984D01*
X176151Y27984D01*
X175872Y28658D01*
X175345Y29345D01*
X174658Y29871D01*
X173984Y30151D01*
X173984Y30151D02*
G37*
G36*
X172016Y30151D02*
X171342Y29871D01*
X170655Y29345D01*
X170129Y28658D01*
X169849Y27984D01*
X172016Y27984D01*
X172016Y30151D01*
X172016Y30151D02*
G37*
G36*
X43070Y30858D02*
X38327Y30858D01*
X38327Y26115D01*
X38859Y26185D01*
X40271Y26770D01*
X41484Y27701D01*
X42415Y28914D01*
X43000Y30327D01*
X43070Y30858D01*
X43070Y30858D02*
G37*
G36*
X36358Y30858D02*
X31615Y30858D01*
X31685Y30327D01*
X32270Y28914D01*
X33201Y27701D01*
X34414Y26770D01*
X35827Y26185D01*
X36358Y26115D01*
X36358Y30858D01*
X36358Y30858D02*
G37*
G36*
X23385Y30858D02*
X18642Y30858D01*
X18642Y26115D01*
X19173Y26185D01*
X20586Y26770D01*
X21799Y27701D01*
X22730Y28914D01*
X23315Y30327D01*
X23385Y30858D01*
X23385Y30858D02*
G37*
G36*
X16673Y30858D02*
X11930Y30858D01*
X12000Y30327D01*
X12585Y28914D01*
X13516Y27701D01*
X14729Y26770D01*
X16141Y26185D01*
X16673Y26115D01*
X16673Y30858D01*
X16673Y30858D02*
G37*
G36*
X176151Y26016D02*
X173984Y26016D01*
X173984Y23849D01*
X174658Y24128D01*
X175345Y24655D01*
X175872Y25342D01*
X176151Y26016D01*
X176151Y26016D02*
G37*
G36*
X172016Y26016D02*
X169849Y26016D01*
X170129Y25342D01*
X170655Y24655D01*
X171342Y24128D01*
X172016Y23849D01*
X172016Y26016D01*
X172016Y26016D02*
G37*
G36*
X38327Y17885D02*
X38327Y13142D01*
X43070Y13142D01*
X43000Y13673D01*
X42415Y15086D01*
X41484Y16299D01*
X40271Y17230D01*
X38859Y17815D01*
X38327Y17885D01*
X38327Y17885D02*
G37*
G36*
X36358Y17885D02*
X35827Y17815D01*
X34414Y17230D01*
X33201Y16299D01*
X32270Y15086D01*
X31685Y13673D01*
X31615Y13142D01*
X36358Y13142D01*
X36358Y17885D01*
X36358Y17885D02*
G37*
G36*
X18642Y17885D02*
X18642Y13142D01*
X23385Y13142D01*
X23315Y13673D01*
X22730Y15086D01*
X21799Y16299D01*
X20586Y17230D01*
X19173Y17815D01*
X18642Y17885D01*
X18642Y17885D02*
G37*
G36*
X16673Y17885D02*
X16141Y17815D01*
X14729Y17230D01*
X13516Y16299D01*
X12585Y15086D01*
X12000Y13673D01*
X11930Y13142D01*
X16673Y13142D01*
X16673Y17885D01*
X16673Y17885D02*
G37*
G36*
X43070Y11173D02*
X38327Y11173D01*
X38327Y6430D01*
X38859Y6500D01*
X40271Y7085D01*
X41484Y8016D01*
X42415Y9229D01*
X43000Y10642D01*
X43070Y11173D01*
X43070Y11173D02*
G37*
G36*
X36358Y11173D02*
X31615Y11173D01*
X31685Y10642D01*
X32270Y9229D01*
X33201Y8016D01*
X34414Y7085D01*
X35827Y6500D01*
X36358Y6430D01*
X36358Y11173D01*
X36358Y11173D02*
G37*
G36*
X23385Y11173D02*
X18642Y11173D01*
X18642Y6430D01*
X19173Y6500D01*
X20586Y7085D01*
X21799Y8016D01*
X22730Y9229D01*
X23315Y10642D01*
X23385Y11173D01*
X23385Y11173D02*
G37*
G36*
X16673Y11173D02*
X11930Y11173D01*
X12000Y10642D01*
X12585Y9229D01*
X13516Y8016D01*
X14729Y7085D01*
X16141Y6500D01*
X16673Y6430D01*
X16673Y11173D01*
X16673Y11173D02*
G37*
%LPD*%
G36*
X111684Y118132D02*
X111684Y110752D01*
X110232Y109300D01*
X107892Y109300D01*
X106836Y110043D01*
X106721Y110619D01*
X106548Y111385D01*
X106922Y111943D01*
X107053Y112602D01*
X106922Y113261D01*
X106548Y113820D01*
X106548Y113944D01*
X106922Y114502D01*
X107053Y115161D01*
X106922Y115820D01*
X106548Y116379D01*
X106721Y117144D01*
X106836Y117720D01*
X107892Y118464D01*
X111280Y118464D01*
X111684Y118132D01*
X111684Y118132D02*
G37*
G36*
X89029Y111635D02*
X89457Y111218D01*
X89323Y110547D01*
X89323Y100322D01*
X88142Y99957D01*
X87845Y100345D01*
X87158Y100872D01*
X86484Y101151D01*
X86484Y98000D01*
X86484Y94849D01*
X87158Y95129D01*
X87845Y95655D01*
X88142Y96043D01*
X89323Y95678D01*
X89323Y84673D01*
X88776Y84673D01*
X88776Y79327D01*
X89524Y79327D01*
X89524Y72673D01*
X89276Y72673D01*
X89276Y67327D01*
X94197Y67327D01*
X95378Y67327D01*
X95827Y66877D01*
X95827Y63062D01*
X95122Y62173D01*
X94646Y62173D01*
X89776Y62173D01*
X89776Y61724D01*
X81724Y61724D01*
X81724Y62173D01*
X76854Y62173D01*
X76378Y62173D01*
X75673Y63062D01*
X75673Y67656D01*
X76854Y68827D01*
X77303Y68827D01*
X82224Y68827D01*
X82224Y74173D01*
X81726Y74173D01*
X81726Y79327D01*
X82224Y79327D01*
X82224Y84673D01*
X81677Y84673D01*
X81677Y95679D01*
X82858Y96043D01*
X83155Y95655D01*
X83842Y95129D01*
X84516Y94849D01*
X84516Y98000D01*
X84516Y101151D01*
X83842Y100872D01*
X83155Y100345D01*
X82858Y99957D01*
X81677Y100321D01*
X81677Y105108D01*
X88483Y111915D01*
X89029Y111635D01*
X89029Y111635D02*
G37*
G36*
X104362Y84570D02*
X104446Y84149D01*
X104928Y83428D01*
X132448Y55907D01*
X132448Y30593D01*
X123579Y21724D01*
X113421Y21724D01*
X87724Y47421D01*
X87724Y57276D01*
X89776Y57276D01*
X89776Y56827D01*
X94697Y56827D01*
X95878Y56827D01*
X96303Y56827D01*
X101224Y56827D01*
X101224Y57276D01*
X108729Y57276D01*
X108729Y50173D01*
X108276Y50173D01*
X108276Y44827D01*
X108823Y44827D01*
X108823Y38673D01*
X108276Y38673D01*
X108276Y33327D01*
X110793Y33327D01*
X111047Y33276D01*
X111302Y33327D01*
X113497Y33327D01*
X113622Y33327D01*
X114715Y33539D01*
X114803Y33539D01*
X116067Y33539D01*
X116067Y36000D01*
X116067Y38461D01*
X114715Y38461D01*
X113622Y38673D01*
X113271Y39761D01*
X113271Y44476D01*
X113622Y44827D01*
X114715Y45039D01*
X114803Y45039D01*
X116067Y45039D01*
X116067Y47500D01*
X116067Y49961D01*
X114715Y49961D01*
X113622Y50173D01*
X113177Y51221D01*
X113177Y55986D01*
X114122Y56827D01*
X115215Y57039D01*
X115303Y57039D01*
X116567Y57039D01*
X116567Y59500D01*
X116567Y61961D01*
X115215Y61961D01*
X114122Y62173D01*
X113997Y62173D01*
X108776Y62173D01*
X108776Y61724D01*
X101224Y61724D01*
X101224Y62173D01*
X100275Y62173D01*
X100275Y67327D01*
X100724Y67327D01*
X100724Y72673D01*
X95803Y72673D01*
X94807Y72673D01*
X93972Y73508D01*
X93972Y79176D01*
X94122Y79327D01*
X95215Y79539D01*
X95303Y79539D01*
X96567Y79539D01*
X96567Y82000D01*
X96567Y84461D01*
X95215Y84461D01*
X94122Y84673D01*
X93771Y85760D01*
X93771Y93618D01*
X94862Y94070D01*
X104362Y84570D01*
X104362Y84570D02*
G37*
%LPC*%
G36*
X98535Y84461D02*
X98535Y82984D01*
X100012Y82984D01*
X100012Y84461D01*
X98535Y84461D01*
X98535Y84461D02*
G37*
G36*
X100012Y81016D02*
X98535Y81016D01*
X98535Y79539D01*
X100012Y79539D01*
X100012Y81016D01*
X100012Y81016D02*
G37*
G36*
X118535Y61961D02*
X118535Y60484D01*
X120012Y60484D01*
X120012Y61961D01*
X118535Y61961D01*
X118535Y61961D02*
G37*
G36*
X120012Y58516D02*
X118535Y58516D01*
X118535Y57039D01*
X120012Y57039D01*
X120012Y58516D01*
X120012Y58516D02*
G37*
G36*
X118035Y49961D02*
X118035Y48484D01*
X119512Y48484D01*
X119512Y49961D01*
X118035Y49961D01*
X118035Y49961D02*
G37*
G36*
X100484Y49151D02*
X100484Y46984D01*
X102651Y46984D01*
X102372Y47658D01*
X101845Y48345D01*
X101158Y48871D01*
X100484Y49151D01*
X100484Y49151D02*
G37*
G36*
X98516Y49151D02*
X97842Y48871D01*
X97155Y48345D01*
X96628Y47658D01*
X96349Y46984D01*
X98516Y46984D01*
X98516Y49151D01*
X98516Y49151D02*
G37*
G36*
X119512Y46516D02*
X118035Y46516D01*
X118035Y45039D01*
X119512Y45039D01*
X119512Y46516D01*
X119512Y46516D02*
G37*
G36*
X102651Y45016D02*
X100484Y45016D01*
X100484Y42849D01*
X101158Y43128D01*
X101845Y43655D01*
X102372Y44342D01*
X102651Y45016D01*
X102651Y45016D02*
G37*
G36*
X98516Y45016D02*
X96349Y45016D01*
X96628Y44342D01*
X97155Y43655D01*
X97842Y43128D01*
X98516Y42849D01*
X98516Y45016D01*
X98516Y45016D02*
G37*
G36*
X118035Y38461D02*
X118035Y36984D01*
X119512Y36984D01*
X119512Y38461D01*
X118035Y38461D01*
X118035Y38461D02*
G37*
G36*
X119512Y35016D02*
X118035Y35016D01*
X118035Y33539D01*
X119512Y33539D01*
X119512Y35016D01*
X119512Y35016D02*
G37*
%LPD*%
D10*
X98051Y70000D02*
D03*
X91949Y70000D02*
D03*
X73449Y71500D02*
D03*
X79551Y71500D02*
D03*
X79051Y59500D02*
D03*
X72949Y59500D02*
D03*
X53449Y59500D02*
D03*
X59551Y59500D02*
D03*
X47449Y46500D02*
D03*
X53551Y46500D02*
D03*
X72551Y46500D02*
D03*
X66449Y46500D02*
D03*
X92449Y59500D02*
D03*
X98551Y59500D02*
D03*
X111449Y59500D02*
D03*
X117551Y59500D02*
D03*
X110949Y47500D02*
D03*
X117051Y47500D02*
D03*
X117051Y36000D02*
D03*
X110949Y36000D02*
D03*
X179949Y56500D02*
D03*
X186051Y56500D02*
D03*
X179949Y66500D02*
D03*
X186051Y66500D02*
D03*
X179949Y76500D02*
D03*
X186051Y76500D02*
D03*
X179898Y86500D02*
D03*
X186000Y86500D02*
D03*
X179949Y96500D02*
D03*
X186051Y96500D02*
D03*
X179949Y106500D02*
D03*
X186051Y106500D02*
D03*
X179949Y116500D02*
D03*
X186051Y116500D02*
D03*
X179949Y126500D02*
D03*
X186051Y126500D02*
D03*
X179949Y176500D02*
D03*
X186051Y176500D02*
D03*
X179949Y146500D02*
D03*
X186051Y146500D02*
D03*
X179949Y156500D02*
D03*
X186051Y156500D02*
D03*
X179949Y166500D02*
D03*
X186051Y166500D02*
D03*
X27449Y134000D02*
D03*
X33551Y134000D02*
D03*
X125949Y160500D02*
D03*
X132051Y160500D02*
D03*
X125949Y170000D02*
D03*
X132051Y170000D02*
D03*
X125898Y179000D02*
D03*
X132000Y179000D02*
D03*
X73449Y82000D02*
D03*
X79551Y82000D02*
D03*
X97551Y82000D02*
D03*
X91449Y82000D02*
D03*
X35449Y180000D02*
D03*
X41551Y180000D02*
D03*
X43449Y194500D02*
D03*
X49551Y194500D02*
D03*
X51949Y180000D02*
D03*
X58051Y180000D02*
D03*
D11*
X228500Y159846D02*
D03*
X228500Y165949D02*
D03*
X59500Y92449D02*
D03*
X59500Y98551D02*
D03*
X59500Y110449D02*
D03*
X59500Y116551D02*
D03*
X42500Y123551D02*
D03*
X42500Y117449D02*
D03*
X43500Y98449D02*
D03*
X43500Y104551D02*
D03*
X31500Y98449D02*
D03*
X31500Y104551D02*
D03*
X31500Y123551D02*
D03*
X31500Y117449D02*
D03*
X57000Y134051D02*
D03*
X57000Y127949D02*
D03*
X102000Y155551D02*
D03*
X102000Y149449D02*
D03*
X84500Y168051D02*
D03*
X84500Y161949D02*
D03*
D12*
X102083Y135634D02*
D03*
X102083Y133075D02*
D03*
X102083Y130516D02*
D03*
X102083Y127957D02*
D03*
X102083Y125398D02*
D03*
X102083Y122839D02*
D03*
X102083Y120280D02*
D03*
X102083Y117720D02*
D03*
X102083Y115161D02*
D03*
X102083Y112602D02*
D03*
X102083Y110043D02*
D03*
X102083Y107484D02*
D03*
X102083Y104925D02*
D03*
X102083Y102366D02*
D03*
X124917Y135634D02*
D03*
X124917Y133075D02*
D03*
X124917Y130516D02*
D03*
X124917Y127957D02*
D03*
X124917Y125398D02*
D03*
X124917Y122839D02*
D03*
X124917Y120280D02*
D03*
X124917Y117720D02*
D03*
X124917Y115161D02*
D03*
X124917Y112602D02*
D03*
X124917Y110043D02*
D03*
X124917Y107484D02*
D03*
X124917Y104925D02*
D03*
X124917Y102366D02*
D03*
D13*
X79453Y82000D02*
X79453Y105453D01*
X79453Y82000D02*
X79502Y81951D01*
X79502Y71549D02*
X79551Y71500D01*
X79502Y71549D02*
X79502Y81951D01*
X72858Y71417D02*
X72941Y71500D01*
X73449Y71500D01*
X72858Y71417D02*
X73449Y70827D01*
X72701Y59252D02*
X73449Y60000D01*
X73449Y70827D01*
X72453Y46500D02*
X72701Y46748D01*
X72701Y59252D01*
X186051Y76500D02*
X207000Y76500D01*
X186000Y86500D02*
X207000Y86500D01*
X161500Y86500D02*
X179898Y86500D01*
X150500Y97500D02*
X161500Y86500D01*
X179449Y97000D02*
X179949Y96500D01*
X186051Y96500D02*
X207000Y96500D01*
X159500Y96500D02*
X179949Y96500D01*
X150949Y105051D02*
X159500Y96500D01*
X186051Y106500D02*
X207000Y106500D01*
X156500Y106500D02*
X179949Y106500D01*
X151919Y111081D02*
X156500Y106500D01*
X186051Y126500D02*
X207000Y126500D01*
X186051Y176500D02*
X207000Y176500D01*
X117835Y190500D02*
X126047Y182287D01*
X109000Y190500D02*
X117835Y190500D01*
X99000Y190500D02*
X109000Y190500D01*
X125923Y170026D02*
X125949Y170000D01*
X125923Y170026D02*
X125923Y178876D01*
X125949Y160598D02*
X125949Y170000D01*
X126047Y181500D02*
X126047Y182287D01*
X126047Y179000D02*
X126047Y181500D01*
X125923Y178876D02*
X126047Y179000D01*
X27500Y22000D02*
X46720Y22000D01*
X66547Y41827D01*
X66547Y46500D01*
X111047Y35500D02*
X111047Y35500D01*
X111047Y35500D02*
X111047Y48000D01*
X42925Y104453D02*
X46287Y104453D01*
X31098Y104551D02*
X42827Y104551D01*
X42925Y104453D01*
X42925Y98547D02*
X45500Y98547D01*
X31098Y98449D02*
X42827Y98449D01*
X42925Y98547D01*
X59500Y110547D02*
X62000Y110547D01*
X59500Y98500D02*
X61953Y98500D01*
X84500Y153000D02*
X84500Y161949D01*
X80500Y149000D02*
X84500Y153000D01*
X125949Y160598D02*
X126047Y160500D01*
X126047Y157500D02*
X126047Y160500D01*
X53551Y46500D02*
X66547Y46500D01*
X59551Y59500D02*
X72949Y59500D01*
X91748Y70201D02*
X91949Y70000D01*
X91748Y70201D02*
X91748Y81799D01*
X91547Y82000D02*
X91748Y81799D01*
X97801Y69750D02*
X98051Y70000D01*
X111047Y48000D02*
X111047Y48000D01*
X98051Y60000D02*
X98551Y59500D01*
X98051Y60000D02*
X98051Y69500D01*
X97801Y69750D02*
X98051Y69500D01*
X110953Y59004D02*
X111449Y59500D01*
X110953Y48094D02*
X110953Y59004D01*
X98551Y59500D02*
X111449Y59500D01*
X110953Y48094D02*
X111047Y48000D01*
X85500Y59500D02*
X92449Y59500D01*
X79051Y59500D02*
X85500Y59500D01*
X56974Y134026D02*
X57000Y134051D01*
X33577Y134026D02*
X56974Y134026D01*
X33551Y134000D02*
X33577Y134026D01*
X57000Y134051D02*
X88449Y134051D01*
X89000Y133500D01*
X57008Y127957D02*
X71043Y127957D01*
X57000Y127949D02*
X57008Y127957D01*
X50783Y127949D02*
X57000Y127949D01*
X46287Y123453D02*
X50783Y127949D01*
X45500Y123453D02*
X46287Y123453D01*
X56929Y134571D02*
X57000Y134642D01*
X168500Y56500D02*
X179949Y56500D01*
X186051Y56500D02*
X207000Y56500D01*
X186051Y66500D02*
X207000Y66500D01*
X168500Y66500D02*
X179949Y66500D01*
X164500Y76500D02*
X179949Y76500D01*
X186051Y116500D02*
X207000Y116500D01*
X152500Y116500D02*
X179949Y116500D01*
X186051Y146500D02*
X207000Y146500D01*
X157500Y146500D02*
X179949Y146500D01*
X186051Y156500D02*
X207000Y156500D01*
X162468Y156500D02*
X179949Y156500D01*
X171732Y176500D02*
X179949Y176500D01*
X186051Y166500D02*
X207000Y166500D01*
X167500Y166500D02*
X179949Y166500D01*
X141000Y140000D02*
X167500Y166500D01*
X228500Y55500D02*
X228500Y159846D01*
X215500Y42500D02*
X228500Y55500D01*
X168500Y42500D02*
X215500Y42500D01*
X122500Y88500D02*
X168500Y42500D01*
X228500Y165949D02*
X228500Y170953D01*
X212953Y186500D02*
X228500Y170953D01*
X207000Y186500D02*
X212953Y186500D01*
X41526Y179974D02*
X41551Y180000D01*
X41526Y159026D02*
X41526Y179974D01*
X41500Y159000D02*
X41526Y159026D01*
X43449Y181898D02*
X43449Y194500D01*
X41551Y180000D02*
X43449Y181898D01*
X49551Y182398D02*
X49551Y194500D01*
X49551Y182398D02*
X51949Y180000D01*
X51500Y179551D02*
X51949Y180000D01*
X51500Y159000D02*
X51500Y179551D01*
X61500Y159000D02*
X61500Y176551D01*
X58051Y180000D02*
X61500Y176551D01*
X88500Y180000D02*
X99000Y190500D01*
X58051Y180000D02*
X88500Y180000D01*
X132250Y92750D02*
X168500Y56500D01*
X150500Y84500D02*
X168500Y66500D01*
X143468Y137500D02*
X162468Y156500D01*
X145500Y134500D02*
X157500Y146500D01*
X150000Y91000D02*
X164500Y76500D01*
X138000Y142768D02*
X171732Y176500D01*
X151280Y117720D02*
X152500Y116500D01*
X134672Y29672D02*
X134672Y56828D01*
X124500Y19500D02*
X134672Y29672D01*
X106500Y85000D02*
X134672Y56828D01*
X112500Y19500D02*
X124500Y19500D01*
X85500Y46500D02*
X112500Y19500D01*
X85500Y46500D02*
X85500Y59500D01*
X91547Y82000D02*
X91547Y110547D01*
X52382Y110547D02*
X59500Y110547D01*
X46287Y104453D02*
X52382Y110547D01*
X45500Y98547D02*
X45500Y98547D01*
X61953Y98500D02*
X62000Y98453D01*
X45547Y98500D02*
X59500Y98500D01*
X45500Y98547D02*
X45547Y98500D01*
X62000Y98453D02*
X62787Y98453D01*
X74000Y109665D01*
X74000Y110000D01*
X67047Y110547D02*
X76699Y120199D01*
X62000Y110547D02*
X67047Y110547D01*
X45500Y123453D02*
X45500Y123453D01*
X31000Y123453D02*
X45500Y123453D01*
X31000Y123453D02*
X31000Y123453D01*
X31429Y159071D02*
X31500Y159000D01*
X80500Y149000D02*
X90250Y139250D01*
X61500Y149000D02*
X80500Y149000D01*
X51500Y149000D02*
X61500Y149000D01*
X41500Y149000D02*
X51500Y149000D01*
X31500Y149000D02*
X41500Y149000D01*
D14*
X79453Y105453D02*
X89161Y115161D01*
X150000Y126500D02*
X179949Y126500D01*
X124917Y120280D02*
X143780Y120280D01*
X150000Y126500D01*
X102000Y135716D02*
X102000Y149449D01*
X102000Y135716D02*
X102082Y135634D01*
X102083Y135634D01*
X95280Y117720D02*
X102083Y117720D01*
X124917Y122839D02*
X131839Y122839D01*
X102083Y117720D02*
X108280Y117720D01*
X102083Y110043D02*
X108043Y110043D01*
X118661Y122839D02*
X124917Y122839D01*
X95032Y96468D02*
X106500Y85000D01*
X95032Y96468D02*
X95032Y106000D01*
X96516Y107484D01*
X102083Y107484D01*
X113000Y98000D02*
X122500Y88500D01*
X113000Y98000D02*
X113000Y103000D01*
X111075Y104925D02*
X113000Y103000D01*
X102083Y104925D02*
X111075Y104925D01*
X91547Y110547D02*
X93602Y112602D01*
X102083Y112602D01*
X89161Y115161D02*
X102083Y115161D01*
X74000Y110000D02*
X86839Y122839D01*
X102083Y122839D01*
X76699Y120199D02*
X81898Y125398D01*
X102083Y125398D01*
X71043Y127957D02*
X102083Y127957D01*
X89000Y133500D02*
X91984Y130516D01*
X102083Y130516D01*
X113500Y128000D02*
X113500Y144165D01*
X113500Y122500D02*
X113500Y128000D01*
X113500Y110000D02*
X113500Y122500D01*
X126047Y156713D02*
X126047Y157500D01*
X113500Y144165D02*
X126047Y156713D01*
X110984Y107484D02*
X113500Y110000D01*
X102083Y107484D02*
X110984Y107484D01*
X111280Y120280D02*
X113500Y122500D01*
X113500Y128000D02*
X116102Y125398D01*
X124917Y125398D01*
X102083Y120280D02*
X111280Y120280D01*
X90250Y139250D02*
X96425Y133075D01*
X102083Y133075D01*
X124917Y100083D02*
X132250Y92750D01*
X124917Y100083D02*
X124917Y102366D01*
X130075Y104925D02*
X150500Y84500D01*
X124917Y104925D02*
X130075Y104925D01*
X133516Y107484D02*
X150000Y91000D01*
X124917Y107484D02*
X133516Y107484D01*
X137957Y110043D02*
X150500Y97500D01*
X124917Y110043D02*
X137957Y110043D01*
X143398Y112602D02*
X150949Y105051D01*
X124917Y112602D02*
X143398Y112602D01*
X147839Y115161D02*
X151919Y111081D01*
X124917Y115161D02*
X147839Y115161D01*
X124917Y117720D02*
X151280Y117720D01*
X138957Y127957D02*
X145500Y134500D01*
X124917Y127957D02*
X138957Y127957D01*
X136484Y130516D02*
X143468Y137500D01*
X124917Y130516D02*
X136484Y130516D01*
X134075Y133075D02*
X141000Y140000D01*
X124917Y133075D02*
X134075Y133075D01*
X130866Y135634D02*
X138000Y142768D01*
X124917Y135634D02*
X130866Y135634D01*
D15*
X27500Y22000D02*
D03*
D16*
X17658Y12157D02*
D03*
X37343Y12157D02*
D03*
X37343Y31842D02*
D03*
X17658Y31842D02*
D03*
D17*
X61500Y159000D02*
D03*
X109000Y190500D02*
D03*
D18*
X61500Y149000D02*
D03*
X51500Y159000D02*
D03*
X51500Y149000D02*
D03*
X41500Y159000D02*
D03*
X41500Y149000D02*
D03*
X31500Y159000D02*
D03*
X31500Y149000D02*
D03*
X99000Y190500D02*
D03*
X89000Y190500D02*
D03*
X207000Y56500D02*
D03*
X207000Y66500D02*
D03*
X207000Y76500D02*
D03*
X207000Y86500D02*
D03*
X207000Y96500D02*
D03*
X207000Y106500D02*
D03*
X207000Y116500D02*
D03*
X207000Y126500D02*
D03*
X207000Y136500D02*
D03*
X207000Y146500D02*
D03*
X207000Y156500D02*
D03*
X207000Y166500D02*
D03*
X207000Y176500D02*
D03*
D19*
X207000Y186500D02*
D03*
D20*
X173000Y27000D02*
D03*
X220000Y63000D02*
D03*
X99500Y46000D02*
D03*
X85500Y98000D02*
D03*
X103500Y172500D02*
D03*
X146500Y168500D02*
D03*
X164000Y136000D02*
D03*
%TF.MD5,f1d9528afc1265ce453c414ebf5d5b90*%
M02*
