%TF.GenerationSoftware,Altium Limited,Altium Designer,20.1.14 (287)*%
G04 Layer_Physical_Order=2*
G04 Layer_Color=16711680*
%FSLAX25Y25*%
%MOIN*%
%TF.SameCoordinates,50D419B3-0610-4842-9EF4-231284EAA126*%
%TF.FilePolarity,Positive*%
%TF.FileFunction,Copper,L2,Bot,Signal*%
%TF.Part,Single*%
G01*
G75*
%TA.AperFunction,ComponentPad*%
%ADD15C,0.08858*%
%ADD16C,0.10039*%
%ADD17R,0.05906X0.05906*%
%ADD18C,0.05906*%
%ADD19R,0.05906X0.05906*%
%TA.AperFunction,ViaPad*%
%ADD20C,0.05000*%
G36*
X261500Y0D02*
X0Y0D01*
X0Y224500D01*
X261500Y224500D01*
X261500Y0D01*
X261500Y0D02*
G37*
%LPC*%
G36*
X89984Y194540D02*
X89984Y191484D01*
X93040Y191484D01*
X93027Y191579D01*
X92611Y192585D01*
X91948Y193448D01*
X91085Y194111D01*
X90079Y194527D01*
X89984Y194540D01*
X89984Y194540D02*
G37*
G36*
X88016Y194540D02*
X87921Y194527D01*
X86915Y194111D01*
X86052Y193448D01*
X85389Y192585D01*
X84973Y191579D01*
X84960Y191484D01*
X88016Y191484D01*
X88016Y194540D01*
X88016Y194540D02*
G37*
G36*
X112953Y194453D02*
X105047Y194453D01*
X105047Y186547D01*
X112953Y186547D01*
X112953Y194453D01*
X112953Y194453D02*
G37*
G36*
X99000Y194487D02*
X97968Y194351D01*
X97007Y193953D01*
X96181Y193319D01*
X95547Y192493D01*
X95149Y191532D01*
X95013Y190500D01*
X95149Y189468D01*
X95547Y188507D01*
X96181Y187681D01*
X97007Y187047D01*
X97968Y186649D01*
X99000Y186513D01*
X100032Y186649D01*
X100993Y187047D01*
X101819Y187681D01*
X102453Y188507D01*
X102851Y189468D01*
X102987Y190500D01*
X102851Y191532D01*
X102453Y192493D01*
X101819Y193319D01*
X100993Y193953D01*
X100032Y194351D01*
X99000Y194487D01*
X99000Y194487D02*
G37*
G36*
X93040Y189516D02*
X89984Y189516D01*
X89984Y186460D01*
X90079Y186473D01*
X91085Y186889D01*
X91948Y187552D01*
X92611Y188415D01*
X93027Y189421D01*
X93040Y189516D01*
X93040Y189516D02*
G37*
G36*
X88016Y189516D02*
X84960Y189516D01*
X84973Y189421D01*
X85389Y188415D01*
X86052Y187552D01*
X86915Y186889D01*
X87921Y186473D01*
X88016Y186460D01*
X88016Y189516D01*
X88016Y189516D02*
G37*
G36*
X210953Y190453D02*
X203047Y190453D01*
X203047Y182547D01*
X210953Y182547D01*
X210953Y190453D01*
X210953Y190453D02*
G37*
G36*
X104484Y176077D02*
X104484Y173484D01*
X107077Y173484D01*
X106715Y174356D01*
X106125Y175125D01*
X105356Y175715D01*
X104484Y176077D01*
X104484Y176077D02*
G37*
G36*
X102516Y176077D02*
X101644Y175715D01*
X100875Y175125D01*
X100285Y174356D01*
X99923Y173484D01*
X102516Y173484D01*
X102516Y176077D01*
X102516Y176077D02*
G37*
G36*
X207000Y180487D02*
X205968Y180351D01*
X205007Y179953D01*
X204181Y179319D01*
X203547Y178493D01*
X203149Y177532D01*
X203013Y176500D01*
X203149Y175468D01*
X203547Y174507D01*
X204181Y173681D01*
X205007Y173047D01*
X205968Y172649D01*
X207000Y172513D01*
X208032Y172649D01*
X208993Y173047D01*
X209819Y173681D01*
X210453Y174507D01*
X210851Y175468D01*
X210987Y176500D01*
X210851Y177532D01*
X210453Y178493D01*
X209819Y179319D01*
X208993Y179953D01*
X208032Y180351D01*
X207000Y180487D01*
X207000Y180487D02*
G37*
G36*
X147484Y172077D02*
X147484Y169484D01*
X150077Y169484D01*
X149715Y170356D01*
X149125Y171125D01*
X148356Y171715D01*
X147484Y172077D01*
X147484Y172077D02*
G37*
G36*
X145516Y172077D02*
X144644Y171715D01*
X143875Y171125D01*
X143285Y170356D01*
X142923Y169484D01*
X145516Y169484D01*
X145516Y172077D01*
X145516Y172077D02*
G37*
G36*
X107077Y171516D02*
X104484Y171516D01*
X104484Y168923D01*
X105356Y169285D01*
X106125Y169875D01*
X106715Y170644D01*
X107077Y171516D01*
X107077Y171516D02*
G37*
G36*
X102516Y171516D02*
X99923Y171516D01*
X100285Y170644D01*
X100875Y169875D01*
X101644Y169285D01*
X102516Y168923D01*
X102516Y171516D01*
X102516Y171516D02*
G37*
G36*
X150077Y167516D02*
X147484Y167516D01*
X147484Y164923D01*
X148356Y165285D01*
X149125Y165875D01*
X149715Y166644D01*
X150077Y167516D01*
X150077Y167516D02*
G37*
G36*
X145516Y167516D02*
X142923Y167516D01*
X143285Y166644D01*
X143875Y165875D01*
X144644Y165285D01*
X145516Y164923D01*
X145516Y167516D01*
X145516Y167516D02*
G37*
G36*
X207000Y170487D02*
X205968Y170351D01*
X205007Y169953D01*
X204181Y169319D01*
X203547Y168493D01*
X203149Y167532D01*
X203013Y166500D01*
X203149Y165468D01*
X203547Y164507D01*
X204181Y163681D01*
X205007Y163047D01*
X205968Y162649D01*
X207000Y162513D01*
X208032Y162649D01*
X208993Y163047D01*
X209819Y163681D01*
X210453Y164507D01*
X210851Y165468D01*
X210987Y166500D01*
X210851Y167532D01*
X210453Y168493D01*
X209819Y169319D01*
X208993Y169953D01*
X208032Y170351D01*
X207000Y170487D01*
X207000Y170487D02*
G37*
G36*
X32484Y163040D02*
X32484Y159984D01*
X35540Y159984D01*
X35527Y160079D01*
X35111Y161085D01*
X34448Y161948D01*
X33585Y162611D01*
X32579Y163027D01*
X32484Y163040D01*
X32484Y163040D02*
G37*
G36*
X30516Y163040D02*
X30421Y163027D01*
X29415Y162611D01*
X28552Y161948D01*
X27889Y161085D01*
X27473Y160079D01*
X27460Y159984D01*
X30516Y159984D01*
X30516Y163040D01*
X30516Y163040D02*
G37*
G36*
X65453Y162953D02*
X57547Y162953D01*
X57547Y155047D01*
X65453Y155047D01*
X65453Y162953D01*
X65453Y162953D02*
G37*
G36*
X51500Y162987D02*
X50468Y162851D01*
X49507Y162453D01*
X48681Y161819D01*
X48047Y160993D01*
X47649Y160032D01*
X47513Y159000D01*
X47649Y157968D01*
X48047Y157007D01*
X48681Y156181D01*
X49507Y155547D01*
X50468Y155149D01*
X51500Y155013D01*
X52532Y155149D01*
X53493Y155547D01*
X54319Y156181D01*
X54953Y157007D01*
X55351Y157968D01*
X55487Y159000D01*
X55351Y160032D01*
X54953Y160993D01*
X54319Y161819D01*
X53493Y162453D01*
X52532Y162851D01*
X51500Y162987D01*
X51500Y162987D02*
G37*
G36*
X41500Y162987D02*
X40468Y162851D01*
X39507Y162453D01*
X38681Y161819D01*
X38047Y160993D01*
X37649Y160032D01*
X37513Y159000D01*
X37649Y157968D01*
X38047Y157007D01*
X38681Y156181D01*
X39507Y155547D01*
X40468Y155149D01*
X41500Y155013D01*
X42532Y155149D01*
X43493Y155547D01*
X44319Y156181D01*
X44953Y157007D01*
X45351Y157968D01*
X45487Y159000D01*
X45351Y160032D01*
X44953Y160993D01*
X44319Y161819D01*
X43493Y162453D01*
X42532Y162851D01*
X41500Y162987D01*
X41500Y162987D02*
G37*
G36*
X35540Y158016D02*
X32484Y158016D01*
X32484Y154960D01*
X32579Y154973D01*
X33585Y155389D01*
X34448Y156052D01*
X35111Y156915D01*
X35527Y157921D01*
X35540Y158016D01*
X35540Y158016D02*
G37*
G36*
X30516Y158016D02*
X27460Y158016D01*
X27473Y157921D01*
X27889Y156915D01*
X28552Y156052D01*
X29415Y155389D01*
X30421Y154973D01*
X30516Y154960D01*
X30516Y158016D01*
X30516Y158016D02*
G37*
G36*
X207000Y160487D02*
X205968Y160351D01*
X205007Y159953D01*
X204181Y159319D01*
X203547Y158493D01*
X203149Y157532D01*
X203013Y156500D01*
X203149Y155468D01*
X203547Y154507D01*
X204181Y153681D01*
X205007Y153047D01*
X205968Y152649D01*
X207000Y152513D01*
X208032Y152649D01*
X208993Y153047D01*
X209819Y153681D01*
X210453Y154507D01*
X210851Y155468D01*
X210987Y156500D01*
X210851Y157532D01*
X210453Y158493D01*
X209819Y159319D01*
X208993Y159953D01*
X208032Y160351D01*
X207000Y160487D01*
X207000Y160487D02*
G37*
G36*
X61500Y152987D02*
X60468Y152851D01*
X59507Y152453D01*
X58681Y151819D01*
X58047Y150993D01*
X57649Y150032D01*
X57513Y149000D01*
X57649Y147968D01*
X58047Y147007D01*
X58681Y146181D01*
X59507Y145547D01*
X60468Y145149D01*
X61500Y145013D01*
X62532Y145149D01*
X63493Y145547D01*
X64319Y146181D01*
X64953Y147007D01*
X65351Y147968D01*
X65487Y149000D01*
X65351Y150032D01*
X64953Y150993D01*
X64319Y151819D01*
X63493Y152453D01*
X62532Y152851D01*
X61500Y152987D01*
X61500Y152987D02*
G37*
G36*
X51500Y152987D02*
X50468Y152851D01*
X49507Y152453D01*
X48681Y151819D01*
X48047Y150993D01*
X47649Y150032D01*
X47513Y149000D01*
X47649Y147968D01*
X48047Y147007D01*
X48681Y146181D01*
X49507Y145547D01*
X50468Y145149D01*
X51500Y145013D01*
X52532Y145149D01*
X53493Y145547D01*
X54319Y146181D01*
X54953Y147007D01*
X55351Y147968D01*
X55487Y149000D01*
X55351Y150032D01*
X54953Y150993D01*
X54319Y151819D01*
X53493Y152453D01*
X52532Y152851D01*
X51500Y152987D01*
X51500Y152987D02*
G37*
G36*
X41500Y152987D02*
X40468Y152851D01*
X39507Y152453D01*
X38681Y151819D01*
X38047Y150993D01*
X37649Y150032D01*
X37513Y149000D01*
X37649Y147968D01*
X38047Y147007D01*
X38681Y146181D01*
X39507Y145547D01*
X40468Y145149D01*
X41500Y145013D01*
X42532Y145149D01*
X43493Y145547D01*
X44319Y146181D01*
X44953Y147007D01*
X45351Y147968D01*
X45487Y149000D01*
X45351Y150032D01*
X44953Y150993D01*
X44319Y151819D01*
X43493Y152453D01*
X42532Y152851D01*
X41500Y152987D01*
X41500Y152987D02*
G37*
G36*
X31500Y152987D02*
X30468Y152851D01*
X29507Y152453D01*
X28681Y151819D01*
X28047Y150993D01*
X27649Y150032D01*
X27513Y149000D01*
X27649Y147968D01*
X28047Y147007D01*
X28681Y146181D01*
X29507Y145547D01*
X30468Y145149D01*
X31500Y145013D01*
X32532Y145149D01*
X33493Y145547D01*
X34319Y146181D01*
X34953Y147007D01*
X35351Y147968D01*
X35487Y149000D01*
X35351Y150032D01*
X34953Y150993D01*
X34319Y151819D01*
X33493Y152453D01*
X32532Y152851D01*
X31500Y152987D01*
X31500Y152987D02*
G37*
G36*
X207000Y150487D02*
X205968Y150351D01*
X205007Y149953D01*
X204181Y149319D01*
X203547Y148493D01*
X203149Y147532D01*
X203013Y146500D01*
X203149Y145468D01*
X203547Y144507D01*
X204181Y143681D01*
X205007Y143047D01*
X205968Y142649D01*
X207000Y142513D01*
X208032Y142649D01*
X208993Y143047D01*
X209819Y143681D01*
X210453Y144507D01*
X210851Y145468D01*
X210987Y146500D01*
X210851Y147532D01*
X210453Y148493D01*
X209819Y149319D01*
X208993Y149953D01*
X208032Y150351D01*
X207000Y150487D01*
X207000Y150487D02*
G37*
G36*
X207984Y140540D02*
X207984Y137484D01*
X211040Y137484D01*
X211027Y137579D01*
X210611Y138585D01*
X209948Y139448D01*
X209085Y140111D01*
X208079Y140527D01*
X207984Y140540D01*
X207984Y140540D02*
G37*
G36*
X206016Y140540D02*
X205921Y140527D01*
X204915Y140111D01*
X204052Y139448D01*
X203389Y138585D01*
X202973Y137579D01*
X202960Y137484D01*
X206016Y137484D01*
X206016Y140540D01*
X206016Y140540D02*
G37*
G36*
X164984Y139577D02*
X164984Y136984D01*
X167577Y136984D01*
X167215Y137856D01*
X166625Y138625D01*
X165856Y139215D01*
X164984Y139577D01*
X164984Y139577D02*
G37*
G36*
X163016Y139577D02*
X162144Y139215D01*
X161375Y138625D01*
X160785Y137856D01*
X160423Y136984D01*
X163016Y136984D01*
X163016Y139577D01*
X163016Y139577D02*
G37*
G36*
X211040Y135516D02*
X207984Y135516D01*
X207984Y132460D01*
X208079Y132473D01*
X209085Y132889D01*
X209948Y133552D01*
X210611Y134415D01*
X211027Y135421D01*
X211040Y135516D01*
X211040Y135516D02*
G37*
G36*
X206016Y135516D02*
X202960Y135516D01*
X202973Y135421D01*
X203389Y134415D01*
X204052Y133552D01*
X204915Y132889D01*
X205921Y132473D01*
X206016Y132460D01*
X206016Y135516D01*
X206016Y135516D02*
G37*
G36*
X167577Y135016D02*
X164984Y135016D01*
X164984Y132423D01*
X165856Y132785D01*
X166625Y133375D01*
X167215Y134144D01*
X167577Y135016D01*
X167577Y135016D02*
G37*
G36*
X163016Y135016D02*
X160423Y135016D01*
X160785Y134144D01*
X161375Y133375D01*
X162144Y132785D01*
X163016Y132423D01*
X163016Y135016D01*
X163016Y135016D02*
G37*
G36*
X207000Y130487D02*
X205968Y130351D01*
X205007Y129953D01*
X204181Y129319D01*
X203547Y128493D01*
X203149Y127532D01*
X203013Y126500D01*
X203149Y125468D01*
X203547Y124507D01*
X204181Y123681D01*
X205007Y123047D01*
X205968Y122649D01*
X207000Y122513D01*
X208032Y122649D01*
X208993Y123047D01*
X209819Y123681D01*
X210453Y124507D01*
X210851Y125468D01*
X210987Y126500D01*
X210851Y127532D01*
X210453Y128493D01*
X209819Y129319D01*
X208993Y129953D01*
X208032Y130351D01*
X207000Y130487D01*
X207000Y130487D02*
G37*
G36*
X207000Y120487D02*
X205968Y120351D01*
X205007Y119953D01*
X204181Y119319D01*
X203547Y118493D01*
X203149Y117532D01*
X203013Y116500D01*
X203149Y115468D01*
X203547Y114507D01*
X204181Y113681D01*
X205007Y113047D01*
X205968Y112649D01*
X207000Y112513D01*
X208032Y112649D01*
X208993Y113047D01*
X209819Y113681D01*
X210453Y114507D01*
X210851Y115468D01*
X210987Y116500D01*
X210851Y117532D01*
X210453Y118493D01*
X209819Y119319D01*
X208993Y119953D01*
X208032Y120351D01*
X207000Y120487D01*
X207000Y120487D02*
G37*
G36*
X207000Y110487D02*
X205968Y110351D01*
X205007Y109953D01*
X204181Y109319D01*
X203547Y108493D01*
X203149Y107532D01*
X203013Y106500D01*
X203149Y105468D01*
X203547Y104507D01*
X204181Y103681D01*
X205007Y103047D01*
X205968Y102649D01*
X207000Y102513D01*
X208032Y102649D01*
X208993Y103047D01*
X209819Y103681D01*
X210453Y104507D01*
X210851Y105468D01*
X210987Y106500D01*
X210851Y107532D01*
X210453Y108493D01*
X209819Y109319D01*
X208993Y109953D01*
X208032Y110351D01*
X207000Y110487D01*
X207000Y110487D02*
G37*
G36*
X86484Y101577D02*
X86484Y98984D01*
X89077Y98984D01*
X88715Y99856D01*
X88125Y100625D01*
X87356Y101215D01*
X86484Y101577D01*
X86484Y101577D02*
G37*
G36*
X84516Y101577D02*
X83644Y101215D01*
X82875Y100625D01*
X82285Y99856D01*
X81923Y98984D01*
X84516Y98984D01*
X84516Y101577D01*
X84516Y101577D02*
G37*
G36*
X89077Y97016D02*
X86484Y97016D01*
X86484Y94423D01*
X87356Y94785D01*
X88125Y95375D01*
X88715Y96144D01*
X89077Y97016D01*
X89077Y97016D02*
G37*
G36*
X84516Y97016D02*
X81923Y97016D01*
X82285Y96144D01*
X82875Y95375D01*
X83644Y94785D01*
X84516Y94423D01*
X84516Y97016D01*
X84516Y97016D02*
G37*
G36*
X207000Y100487D02*
X205968Y100351D01*
X205007Y99953D01*
X204181Y99319D01*
X203547Y98493D01*
X203149Y97532D01*
X203013Y96500D01*
X203149Y95468D01*
X203547Y94507D01*
X204181Y93681D01*
X205007Y93047D01*
X205968Y92649D01*
X207000Y92513D01*
X208032Y92649D01*
X208993Y93047D01*
X209819Y93681D01*
X210453Y94507D01*
X210851Y95468D01*
X210987Y96500D01*
X210851Y97532D01*
X210453Y98493D01*
X209819Y99319D01*
X208993Y99953D01*
X208032Y100351D01*
X207000Y100487D01*
X207000Y100487D02*
G37*
G36*
X207000Y90487D02*
X205968Y90351D01*
X205007Y89953D01*
X204181Y89319D01*
X203547Y88493D01*
X203149Y87532D01*
X203013Y86500D01*
X203149Y85468D01*
X203547Y84507D01*
X204181Y83681D01*
X205007Y83047D01*
X205968Y82649D01*
X207000Y82513D01*
X208032Y82649D01*
X208993Y83047D01*
X209819Y83681D01*
X210453Y84507D01*
X210851Y85468D01*
X210987Y86500D01*
X210851Y87532D01*
X210453Y88493D01*
X209819Y89319D01*
X208993Y89953D01*
X208032Y90351D01*
X207000Y90487D01*
X207000Y90487D02*
G37*
G36*
X207000Y80487D02*
X205968Y80351D01*
X205007Y79953D01*
X204181Y79319D01*
X203547Y78493D01*
X203149Y77532D01*
X203013Y76500D01*
X203149Y75468D01*
X203547Y74507D01*
X204181Y73681D01*
X205007Y73047D01*
X205968Y72649D01*
X207000Y72513D01*
X208032Y72649D01*
X208993Y73047D01*
X209819Y73681D01*
X210453Y74507D01*
X210851Y75468D01*
X210987Y76500D01*
X210851Y77532D01*
X210453Y78493D01*
X209819Y79319D01*
X208993Y79953D01*
X208032Y80351D01*
X207000Y80487D01*
X207000Y80487D02*
G37*
G36*
X220984Y66577D02*
X220984Y63984D01*
X223577Y63984D01*
X223215Y64856D01*
X222625Y65625D01*
X221856Y66215D01*
X220984Y66577D01*
X220984Y66577D02*
G37*
G36*
X219016Y66577D02*
X218144Y66215D01*
X217375Y65625D01*
X216785Y64856D01*
X216423Y63984D01*
X219016Y63984D01*
X219016Y66577D01*
X219016Y66577D02*
G37*
G36*
X207000Y70487D02*
X205968Y70351D01*
X205007Y69953D01*
X204181Y69319D01*
X203547Y68493D01*
X203149Y67532D01*
X203013Y66500D01*
X203149Y65468D01*
X203547Y64507D01*
X204181Y63681D01*
X205007Y63047D01*
X205968Y62649D01*
X207000Y62513D01*
X208032Y62649D01*
X208993Y63047D01*
X209819Y63681D01*
X210453Y64507D01*
X210851Y65468D01*
X210987Y66500D01*
X210851Y67532D01*
X210453Y68493D01*
X209819Y69319D01*
X208993Y69953D01*
X208032Y70351D01*
X207000Y70487D01*
X207000Y70487D02*
G37*
G36*
X223577Y62016D02*
X220984Y62016D01*
X220984Y59423D01*
X221856Y59785D01*
X222625Y60375D01*
X223215Y61144D01*
X223577Y62016D01*
X223577Y62016D02*
G37*
G36*
X219016Y62016D02*
X216423Y62016D01*
X216785Y61144D01*
X217375Y60375D01*
X218144Y59785D01*
X219016Y59423D01*
X219016Y62016D01*
X219016Y62016D02*
G37*
G36*
X207000Y60487D02*
X205968Y60351D01*
X205007Y59953D01*
X204181Y59319D01*
X203547Y58493D01*
X203149Y57532D01*
X203013Y56500D01*
X203149Y55468D01*
X203547Y54507D01*
X204181Y53681D01*
X205007Y53047D01*
X205968Y52649D01*
X207000Y52513D01*
X208032Y52649D01*
X208993Y53047D01*
X209819Y53681D01*
X210453Y54507D01*
X210851Y55468D01*
X210987Y56500D01*
X210851Y57532D01*
X210453Y58493D01*
X209819Y59319D01*
X208993Y59953D01*
X208032Y60351D01*
X207000Y60487D01*
X207000Y60487D02*
G37*
G36*
X100484Y49577D02*
X100484Y46984D01*
X103077Y46984D01*
X102715Y47856D01*
X102125Y48625D01*
X101356Y49215D01*
X100484Y49577D01*
X100484Y49577D02*
G37*
G36*
X98516Y49577D02*
X97644Y49215D01*
X96875Y48625D01*
X96285Y47856D01*
X95923Y46984D01*
X98516Y46984D01*
X98516Y49577D01*
X98516Y49577D02*
G37*
G36*
X103077Y45016D02*
X100484Y45016D01*
X100484Y42423D01*
X101356Y42785D01*
X102125Y43375D01*
X102715Y44144D01*
X103077Y45016D01*
X103077Y45016D02*
G37*
G36*
X98516Y45016D02*
X95923Y45016D01*
X96285Y44144D01*
X96875Y43375D01*
X97644Y42785D01*
X98516Y42423D01*
X98516Y45016D01*
X98516Y45016D02*
G37*
G36*
X38327Y37976D02*
X38327Y32827D01*
X43476Y32827D01*
X43454Y33058D01*
X43099Y34227D01*
X42523Y35304D01*
X41748Y36248D01*
X40804Y37023D01*
X39727Y37599D01*
X38558Y37954D01*
X38327Y37976D01*
X38327Y37976D02*
G37*
G36*
X36358Y37976D02*
X36127Y37954D01*
X34958Y37599D01*
X33881Y37023D01*
X32937Y36248D01*
X32162Y35304D01*
X31586Y34227D01*
X31231Y33058D01*
X31209Y32827D01*
X36358Y32827D01*
X36358Y37976D01*
X36358Y37976D02*
G37*
G36*
X18642Y37976D02*
X18642Y32827D01*
X23791Y32827D01*
X23768Y33058D01*
X23414Y34227D01*
X22838Y35304D01*
X22063Y36248D01*
X21119Y37023D01*
X20042Y37599D01*
X18873Y37954D01*
X18642Y37976D01*
X18642Y37976D02*
G37*
G36*
X16673Y37976D02*
X16442Y37954D01*
X15273Y37599D01*
X14196Y37023D01*
X13252Y36248D01*
X12477Y35304D01*
X11901Y34227D01*
X11546Y33058D01*
X11524Y32827D01*
X16673Y32827D01*
X16673Y37976D01*
X16673Y37976D02*
G37*
G36*
X173984Y30577D02*
X173984Y27984D01*
X176577Y27984D01*
X176215Y28856D01*
X175625Y29625D01*
X174856Y30215D01*
X173984Y30577D01*
X173984Y30577D02*
G37*
G36*
X172016Y30577D02*
X171144Y30215D01*
X170375Y29625D01*
X169785Y28856D01*
X169423Y27984D01*
X172016Y27984D01*
X172016Y30577D01*
X172016Y30577D02*
G37*
G36*
X43476Y30858D02*
X38327Y30858D01*
X38327Y25709D01*
X38558Y25732D01*
X39727Y26086D01*
X40804Y26662D01*
X41748Y27437D01*
X42523Y28381D01*
X43099Y29458D01*
X43454Y30627D01*
X43476Y30858D01*
X43476Y30858D02*
G37*
G36*
X36358Y30858D02*
X31209Y30858D01*
X31231Y30627D01*
X31586Y29458D01*
X32162Y28381D01*
X32937Y27437D01*
X33881Y26662D01*
X34958Y26086D01*
X36127Y25732D01*
X36358Y25709D01*
X36358Y30858D01*
X36358Y30858D02*
G37*
G36*
X23791Y30858D02*
X18642Y30858D01*
X18642Y25709D01*
X18873Y25732D01*
X20042Y26086D01*
X21119Y26662D01*
X22063Y27437D01*
X22838Y28381D01*
X23414Y29458D01*
X23768Y30627D01*
X23791Y30858D01*
X23791Y30858D02*
G37*
G36*
X16673Y30858D02*
X11524Y30858D01*
X11546Y30627D01*
X11901Y29458D01*
X12477Y28381D01*
X13252Y27437D01*
X14196Y26662D01*
X15273Y26086D01*
X16442Y25732D01*
X16673Y25709D01*
X16673Y30858D01*
X16673Y30858D02*
G37*
G36*
X176577Y26016D02*
X173984Y26016D01*
X173984Y23423D01*
X174856Y23785D01*
X175625Y24375D01*
X176215Y25144D01*
X176577Y26016D01*
X176577Y26016D02*
G37*
G36*
X172016Y26016D02*
X169423Y26016D01*
X169785Y25144D01*
X170375Y24375D01*
X171144Y23785D01*
X172016Y23423D01*
X172016Y26016D01*
X172016Y26016D02*
G37*
G36*
X27500Y27476D02*
X26083Y27289D01*
X24762Y26742D01*
X23628Y25872D01*
X22758Y24738D01*
X22211Y23417D01*
X22024Y22000D01*
X22211Y20583D01*
X22758Y19262D01*
X23628Y18128D01*
X24762Y17258D01*
X26083Y16711D01*
X27500Y16524D01*
X28917Y16711D01*
X30238Y17258D01*
X31372Y18128D01*
X32242Y19262D01*
X32789Y20583D01*
X32976Y22000D01*
X32789Y23417D01*
X32242Y24738D01*
X31372Y25872D01*
X30238Y26742D01*
X28917Y27289D01*
X27500Y27476D01*
X27500Y27476D02*
G37*
G36*
X38327Y18291D02*
X38327Y13142D01*
X43476Y13142D01*
X43454Y13373D01*
X43099Y14542D01*
X42523Y15619D01*
X41748Y16563D01*
X40804Y17338D01*
X39727Y17914D01*
X38558Y18269D01*
X38327Y18291D01*
X38327Y18291D02*
G37*
G36*
X36358Y18291D02*
X36127Y18269D01*
X34958Y17914D01*
X33881Y17338D01*
X32937Y16563D01*
X32162Y15619D01*
X31586Y14542D01*
X31231Y13373D01*
X31209Y13142D01*
X36358Y13142D01*
X36358Y18291D01*
X36358Y18291D02*
G37*
G36*
X18642Y18291D02*
X18642Y13142D01*
X23791Y13142D01*
X23768Y13373D01*
X23414Y14542D01*
X22838Y15619D01*
X22063Y16563D01*
X21119Y17338D01*
X20042Y17914D01*
X18873Y18269D01*
X18642Y18291D01*
X18642Y18291D02*
G37*
G36*
X16673Y18291D02*
X16442Y18269D01*
X15273Y17914D01*
X14196Y17338D01*
X13252Y16563D01*
X12477Y15619D01*
X11901Y14542D01*
X11546Y13373D01*
X11524Y13142D01*
X16673Y13142D01*
X16673Y18291D01*
X16673Y18291D02*
G37*
G36*
X43476Y11173D02*
X38327Y11173D01*
X38327Y6024D01*
X38558Y6046D01*
X39727Y6401D01*
X40804Y6977D01*
X41748Y7752D01*
X42523Y8696D01*
X43099Y9773D01*
X43454Y10942D01*
X43476Y11173D01*
X43476Y11173D02*
G37*
G36*
X36358Y11173D02*
X31209Y11173D01*
X31231Y10942D01*
X31586Y9773D01*
X32162Y8696D01*
X32937Y7752D01*
X33881Y6977D01*
X34958Y6401D01*
X36127Y6046D01*
X36358Y6024D01*
X36358Y11173D01*
X36358Y11173D02*
G37*
G36*
X23791Y11173D02*
X18642Y11173D01*
X18642Y6024D01*
X18873Y6046D01*
X20042Y6401D01*
X21119Y6977D01*
X22063Y7752D01*
X22838Y8696D01*
X23414Y9773D01*
X23768Y10942D01*
X23791Y11173D01*
X23791Y11173D02*
G37*
G36*
X16673Y11173D02*
X11524Y11173D01*
X11546Y10942D01*
X11901Y9773D01*
X12477Y8696D01*
X13252Y7752D01*
X14196Y6977D01*
X15273Y6401D01*
X16442Y6046D01*
X16673Y6024D01*
X16673Y11173D01*
X16673Y11173D02*
G37*
%LPD*%
D15*
X27500Y22000D02*
D03*
D16*
X17658Y12157D02*
D03*
X37343Y12157D02*
D03*
X37343Y31842D02*
D03*
X17658Y31842D02*
D03*
D17*
X61500Y159000D02*
D03*
X109000Y190500D02*
D03*
D18*
X61500Y149000D02*
D03*
X51500Y159000D02*
D03*
X51500Y149000D02*
D03*
X41500Y159000D02*
D03*
X41500Y149000D02*
D03*
X31500Y159000D02*
D03*
X31500Y149000D02*
D03*
X99000Y190500D02*
D03*
X89000Y190500D02*
D03*
X207000Y56500D02*
D03*
X207000Y66500D02*
D03*
X207000Y76500D02*
D03*
X207000Y86500D02*
D03*
X207000Y96500D02*
D03*
X207000Y106500D02*
D03*
X207000Y116500D02*
D03*
X207000Y126500D02*
D03*
X207000Y136500D02*
D03*
X207000Y146500D02*
D03*
X207000Y156500D02*
D03*
X207000Y166500D02*
D03*
X207000Y176500D02*
D03*
D19*
X207000Y186500D02*
D03*
D20*
X173000Y27000D02*
D03*
X220000Y63000D02*
D03*
X99500Y46000D02*
D03*
X85500Y98000D02*
D03*
X103500Y172500D02*
D03*
X146500Y168500D02*
D03*
X164000Y136000D02*
D03*
%TF.MD5,9c435b7faf558a4116c47c38d67c7ce3*%
M02*
