%TF.GenerationSoftware,Altium Limited,Altium Designer,21.9.2 (33)*%
G04 Layer_Physical_Order=1*
G04 Layer_Color=255*
%FSLAX25Y25*%
%MOIN*%
%TF.SameCoordinates,C6803599-17ED-4D67-9099-DDF32DD067AF*%
%TF.FilePolarity,Positive*%
%TF.FileFunction,Copper,L1,Top,Signal*%
%TF.Part,Single*%
G01*
G75*
%TA.AperFunction,SMDPad,CuDef*%
%ADD10R,0.01000X0.02100*%
%ADD11P,0.04733X4X180.0*%
%ADD12R,0.02559X0.02756*%
G04:AMPARAMS|DCode=13|XSize=25.59mil|YSize=27.56mil|CornerRadius=0mil|HoleSize=0mil|Usage=FLASHONLY|Rotation=157.500|XOffset=0mil|YOffset=0mil|HoleType=Round|Shape=Rectangle|*
%AMROTATEDRECTD13*
4,1,4,0.01709,0.00783,0.00655,-0.01763,-0.01709,-0.00783,-0.00655,0.01763,0.01709,0.00783,0.0*
%
%ADD13ROTATEDRECTD13*%

%ADD14R,0.02165X0.02165*%
G04:AMPARAMS|DCode=15|XSize=25.59mil|YSize=27.56mil|CornerRadius=0mil|HoleSize=0mil|Usage=FLASHONLY|Rotation=135.000|XOffset=0mil|YOffset=0mil|HoleType=Round|Shape=Rectangle|*
%AMROTATEDRECTD15*
4,1,4,0.01879,0.00070,-0.00070,-0.01879,-0.01879,-0.00070,0.00070,0.01879,0.01879,0.00070,0.0*
%
%ADD15ROTATEDRECTD15*%

G04:AMPARAMS|DCode=16|XSize=25.59mil|YSize=27.56mil|CornerRadius=0mil|HoleSize=0mil|Usage=FLASHONLY|Rotation=225.000|XOffset=0mil|YOffset=0mil|HoleType=Round|Shape=Rectangle|*
%AMROTATEDRECTD16*
4,1,4,-0.00070,0.01879,0.01879,-0.00070,0.00070,-0.01879,-0.01879,0.00070,-0.00070,0.01879,0.0*
%
%ADD16ROTATEDRECTD16*%

%ADD17R,0.02100X0.01000*%
%ADD18R,0.03347X0.03347*%
G04:AMPARAMS|DCode=19|XSize=25.59mil|YSize=27.56mil|CornerRadius=0mil|HoleSize=0mil|Usage=FLASHONLY|Rotation=112.500|XOffset=0mil|YOffset=0mil|HoleType=Round|Shape=Rectangle|*
%AMROTATEDRECTD19*
4,1,4,0.01763,-0.00655,-0.00783,-0.01709,-0.01763,0.00655,0.00783,0.01709,0.01763,-0.00655,0.0*
%
%ADD19ROTATEDRECTD19*%

G04:AMPARAMS|DCode=20|XSize=25.59mil|YSize=27.56mil|CornerRadius=0mil|HoleSize=0mil|Usage=FLASHONLY|Rotation=202.500|XOffset=0mil|YOffset=0mil|HoleType=Round|Shape=Rectangle|*
%AMROTATEDRECTD20*
4,1,4,0.00655,0.01763,0.01709,-0.00783,-0.00655,-0.01763,-0.01709,0.00783,0.00655,0.01763,0.0*
%
%ADD20ROTATEDRECTD20*%

%TA.AperFunction,Conductor*%
%ADD21C,0.03000*%
%ADD22C,0.04000*%
%TA.AperFunction,ComponentPad*%
%ADD23C,0.10039*%
%ADD24C,0.08858*%
%TA.AperFunction,ViaPad*%
%ADD25C,0.05000*%
G36*
X183500Y0D02*
X0Y0D01*
X0Y95000D01*
X183500Y95000D01*
X183500Y0D01*
X183500Y0D02*
G37*
%LPC*%
G36*
X66984Y81640D02*
X66984Y79484D01*
X69140Y79484D01*
X69063Y79769D01*
X68631Y80519D01*
X68019Y81131D01*
X67269Y81563D01*
X66984Y81640D01*
X66984Y81640D02*
G37*
G36*
X65016Y81640D02*
X64731Y81563D01*
X63981Y81131D01*
X63369Y80519D01*
X62937Y79769D01*
X62860Y79484D01*
X65016Y79484D01*
X65016Y81640D01*
X65016Y81640D02*
G37*
G36*
X148045Y78547D02*
X137983Y78547D01*
X137069Y78427D01*
X136218Y78074D01*
X135487Y77513D01*
X135383Y77378D01*
X133965Y77378D01*
X133721Y77378D01*
X132965Y77378D01*
X132720Y77378D01*
X132087Y77378D01*
X131996Y77496D01*
X131265Y78057D01*
X130414Y78410D01*
X129500Y78530D01*
X124000Y78530D01*
X123086Y78410D01*
X122235Y78057D01*
X121504Y77496D01*
X118883Y74875D01*
X118322Y74144D01*
X117969Y73293D01*
X117849Y72379D01*
X117868Y72231D01*
X117586Y71949D01*
X117051Y71414D01*
X116879Y71242D01*
X116398Y70761D01*
X116250Y70780D01*
X115336Y70660D01*
X114485Y70307D01*
X113754Y69746D01*
X112038Y68030D01*
X111500Y68030D01*
X110586Y67910D01*
X109735Y67557D01*
X109004Y66996D01*
X108443Y66265D01*
X108292Y65902D01*
X107165Y65435D01*
X106241Y65052D01*
X105597Y64786D01*
X105265Y65040D01*
X104414Y65393D01*
X103500Y65513D01*
X96629Y65513D01*
X96500Y65530D01*
X95586Y65410D01*
X94735Y65057D01*
X94116Y64583D01*
X92717Y64583D01*
X90944Y64583D01*
X90353Y65353D01*
X89517Y65994D01*
X88544Y66397D01*
X87500Y66535D01*
X41517Y66535D01*
X41344Y66834D01*
X40334Y67844D01*
X39096Y68559D01*
X37715Y68929D01*
X36285Y68929D01*
X34904Y68559D01*
X33666Y67844D01*
X32656Y66834D01*
X31941Y65596D01*
X31571Y64215D01*
X31571Y62785D01*
X31941Y61404D01*
X32656Y60166D01*
X33666Y59156D01*
X34904Y58441D01*
X36285Y58071D01*
X37715Y58071D01*
X39096Y58441D01*
X39382Y58606D01*
X39391Y58603D01*
X40435Y58465D01*
X42024Y58465D01*
X42438Y57465D01*
X42332Y57359D01*
X41696Y56408D01*
X41259Y55351D01*
X41118Y54642D01*
X52568Y54642D01*
X52426Y55351D01*
X51989Y56408D01*
X51353Y57359D01*
X51247Y57465D01*
X51661Y58465D01*
X60163Y58465D01*
X60163Y56513D01*
X61016Y56513D01*
X61016Y57800D01*
X62984Y57800D01*
X62984Y56513D01*
X63837Y56513D01*
X63837Y58465D01*
X68663Y58465D01*
X68663Y56513D01*
X69516Y56513D01*
X69516Y57800D01*
X71484Y57800D01*
X71484Y56513D01*
X72337Y56513D01*
X72337Y58465D01*
X76663Y58465D01*
X76663Y56513D01*
X77516Y56513D01*
X77516Y57800D01*
X79484Y57800D01*
X79484Y56513D01*
X80337Y56513D01*
X80337Y58465D01*
X83327Y58465D01*
X83327Y56878D01*
X83463Y56878D01*
X83539Y55910D01*
X83539Y55878D01*
X83539Y54433D01*
X86000Y54433D01*
X88461Y54433D01*
X88461Y55878D01*
X88461Y55910D01*
X88537Y56878D01*
X88673Y56878D01*
X88673Y58656D01*
X89517Y59006D01*
X90353Y59647D01*
X90944Y60417D01*
X92283Y60417D01*
X93367Y60417D01*
X93443Y60235D01*
X94004Y59504D01*
X94021Y59487D01*
X94752Y58926D01*
X95603Y58573D01*
X96517Y58453D01*
X103500Y58453D01*
X104414Y58573D01*
X105265Y58926D01*
X105996Y59487D01*
X106352Y59951D01*
X107835Y60565D01*
X108759Y60948D01*
X108985Y61041D01*
X109845Y61397D01*
X110586Y61090D01*
X111500Y60970D01*
X113500Y60970D01*
X114414Y61090D01*
X115265Y61443D01*
X115996Y62004D01*
X118746Y64754D01*
X119307Y65485D01*
X119660Y66336D01*
X119780Y67250D01*
X119761Y67398D01*
X120242Y67879D01*
X120414Y68051D01*
X121231Y68868D01*
X121379Y68849D01*
X122293Y68969D01*
X123144Y69322D01*
X123875Y69883D01*
X125462Y71470D01*
X129500Y71470D01*
X130414Y71590D01*
X131265Y71943D01*
X131996Y72504D01*
X132087Y72622D01*
X133721Y72622D01*
X133965Y72622D01*
X135409Y72622D01*
X135487Y72521D01*
X136218Y71960D01*
X137069Y71607D01*
X137983Y71487D01*
X148045Y71487D01*
X148269Y71516D01*
X149241Y71448D01*
X150511Y70922D01*
X150559Y70555D01*
X150912Y69704D01*
X151473Y68973D01*
X155953Y64493D01*
X155953Y64455D01*
X156073Y63542D01*
X156426Y62690D01*
X156987Y61959D01*
X157676Y61431D01*
X158091Y61102D01*
X158158Y60939D01*
X158131Y60015D01*
X158107Y59958D01*
X157987Y59045D01*
X157987Y54837D01*
X156013Y54837D01*
X156013Y53984D01*
X157300Y53984D01*
X157300Y52016D01*
X156013Y52016D01*
X156013Y51163D01*
X157987Y51163D01*
X157987Y49337D01*
X156013Y49337D01*
X156013Y48484D01*
X157300Y48484D01*
X157300Y46516D01*
X156013Y46516D01*
X156013Y45663D01*
X157987Y45663D01*
X157987Y43837D01*
X156013Y43837D01*
X156013Y42984D01*
X157300Y42984D01*
X157300Y41016D01*
X156013Y41016D01*
X156013Y40163D01*
X157228Y40163D01*
X157970Y39500D01*
X157970Y37837D01*
X156013Y37837D01*
X156013Y36984D01*
X157300Y36984D01*
X157300Y35016D01*
X156013Y35016D01*
X156013Y34163D01*
X157970Y34163D01*
X157970Y32337D01*
X155813Y32337D01*
X155813Y29974D01*
X154889Y29591D01*
X153185Y31295D01*
X152141Y30251D01*
X153881Y28511D01*
X153185Y27815D01*
X153881Y27119D01*
X152141Y25379D01*
X153185Y24335D01*
X153816Y23596D01*
X153719Y23500D01*
X155113Y22106D01*
X154504Y21496D01*
X154186Y21083D01*
X153217Y21083D01*
X151814Y21083D01*
X151496Y21496D01*
X150765Y22057D01*
X149914Y22410D01*
X149000Y22530D01*
X144000Y22530D01*
X143086Y22410D01*
X142235Y22057D01*
X141504Y21496D01*
X141186Y21083D01*
X140217Y21083D01*
X139251Y21164D01*
X138996Y21496D01*
X138265Y22057D01*
X137414Y22410D01*
X136500Y22530D01*
X133000Y22530D01*
X132086Y22410D01*
X131235Y22057D01*
X130504Y21496D01*
X130186Y21083D01*
X129217Y21083D01*
X127814Y21083D01*
X127496Y21496D01*
X126765Y22057D01*
X125914Y22410D01*
X125000Y22530D01*
X121500Y22530D01*
X121352Y22511D01*
X120121Y23742D01*
X119949Y23914D01*
X119242Y24621D01*
X118511Y25352D01*
X118530Y25500D01*
X118410Y26414D01*
X118057Y27265D01*
X117496Y27996D01*
X114496Y30996D01*
X113765Y31557D01*
X112914Y31910D01*
X112000Y32030D01*
X111086Y31910D01*
X110698Y31749D01*
X108985Y32459D01*
X108759Y32552D01*
X107836Y32935D01*
X106660Y33422D01*
X106518Y33765D01*
X105957Y34496D01*
X105226Y35057D01*
X104374Y35410D01*
X103461Y35530D01*
X99461Y35530D01*
X98547Y35410D01*
X97695Y35057D01*
X96964Y34496D01*
X96874Y34378D01*
X95122Y34378D01*
X94878Y34378D01*
X94122Y34378D01*
X93878Y34378D01*
X92587Y34378D01*
X92496Y34496D01*
X91765Y35057D01*
X90914Y35410D01*
X90000Y35530D01*
X89086Y35410D01*
X88235Y35057D01*
X87504Y34496D01*
X84254Y31246D01*
X83693Y30515D01*
X83340Y29664D01*
X83270Y29133D01*
X81879Y27742D01*
X81707Y27570D01*
X81172Y27035D01*
X80999Y26862D01*
X80148Y26011D01*
X80000Y26030D01*
X75000Y26030D01*
X74086Y25910D01*
X73235Y25557D01*
X72504Y24996D01*
X72413Y24878D01*
X71122Y24878D01*
X70878Y24878D01*
X70122Y24878D01*
X69878Y24878D01*
X68100Y24878D01*
X67996Y25013D01*
X67265Y25574D01*
X66414Y25927D01*
X65500Y26047D01*
X63837Y26047D01*
X63837Y27987D01*
X62984Y27987D01*
X62984Y26700D01*
X61016Y26700D01*
X61016Y27987D01*
X60163Y27987D01*
X60163Y26047D01*
X57837Y26047D01*
X57837Y28187D01*
X56984Y28187D01*
X56984Y26900D01*
X55016Y26900D01*
X55016Y28187D01*
X54163Y28187D01*
X54163Y26047D01*
X51337Y26047D01*
X51337Y28187D01*
X50484Y28187D01*
X50484Y26900D01*
X48516Y26900D01*
X48516Y28187D01*
X47663Y28187D01*
X47663Y26047D01*
X45673Y26047D01*
X45673Y28122D01*
X45537Y28122D01*
X45461Y29091D01*
X45461Y29122D01*
X45461Y30567D01*
X43000Y30567D01*
X40539Y30567D01*
X40539Y29122D01*
X40539Y29091D01*
X40463Y28122D01*
X40327Y28122D01*
X40327Y26047D01*
X33443Y26047D01*
X33415Y27035D01*
X34536Y27259D01*
X35593Y27696D01*
X36544Y28332D01*
X37353Y29141D01*
X37989Y30092D01*
X38426Y31149D01*
X38568Y31858D01*
X32842Y31858D01*
X27117Y31858D01*
X27259Y31149D01*
X27696Y30092D01*
X28332Y29141D01*
X29141Y28332D01*
X30092Y27696D01*
X31149Y27259D01*
X32271Y27035D01*
X32242Y26047D01*
X27510Y26047D01*
X27344Y26334D01*
X26334Y27344D01*
X25096Y28059D01*
X23715Y28429D01*
X22285Y28429D01*
X20904Y28059D01*
X19666Y27344D01*
X18656Y26334D01*
X17941Y25096D01*
X17571Y23715D01*
X17571Y22285D01*
X17941Y20904D01*
X18656Y19666D01*
X19666Y18656D01*
X20904Y17941D01*
X22285Y17571D01*
X23715Y17571D01*
X25096Y17941D01*
X26334Y18656D01*
X26665Y18987D01*
X29314Y18987D01*
X29618Y17987D01*
X29141Y17668D01*
X28332Y16859D01*
X27696Y15908D01*
X27259Y14851D01*
X27117Y14142D01*
X32842Y14142D01*
X38568Y14142D01*
X38427Y14851D01*
X37989Y15908D01*
X37353Y16859D01*
X36544Y17668D01*
X36068Y17987D01*
X36371Y18987D01*
X42500Y18987D01*
X53000Y18987D01*
X65500Y18987D01*
X66414Y19107D01*
X67265Y19460D01*
X67996Y20021D01*
X68074Y20122D01*
X69878Y20122D01*
X70122Y20122D01*
X70878Y20122D01*
X71122Y20122D01*
X72413Y20122D01*
X72504Y20004D01*
X73235Y19443D01*
X74086Y19090D01*
X75000Y18970D01*
X80000Y18970D01*
X80914Y19090D01*
X81765Y19443D01*
X82496Y20004D01*
X83057Y20735D01*
X83410Y21586D01*
X83530Y22500D01*
X83511Y22648D01*
X84363Y23499D01*
X85070Y24207D01*
X85242Y24379D01*
X86160Y25297D01*
X86750Y25220D01*
X87664Y25340D01*
X88515Y25693D01*
X89246Y26254D01*
X92496Y29504D01*
X92587Y29622D01*
X93878Y29622D01*
X94122Y29622D01*
X94878Y29622D01*
X95122Y29622D01*
X96874Y29622D01*
X96964Y29504D01*
X97695Y28943D01*
X98547Y28590D01*
X99461Y28470D01*
X103461Y28470D01*
X104374Y28590D01*
X105136Y28905D01*
X106015Y28541D01*
X106241Y28448D01*
X107165Y28065D01*
X108646Y27452D01*
X108943Y26735D01*
X109504Y26004D01*
X112504Y23004D01*
X113235Y22443D01*
X114086Y22090D01*
X115000Y21970D01*
X115148Y21989D01*
X115879Y21258D01*
X116051Y21086D01*
X116758Y20379D01*
X117989Y19148D01*
X117970Y19000D01*
X118090Y18086D01*
X118443Y17235D01*
X119004Y16504D01*
X119735Y15943D01*
X120586Y15590D01*
X121500Y15470D01*
X125000Y15470D01*
X125914Y15590D01*
X126765Y15943D01*
X127496Y16504D01*
X127814Y16917D01*
X128783Y16917D01*
X130186Y16917D01*
X130504Y16504D01*
X131235Y15943D01*
X132086Y15590D01*
X133000Y15470D01*
X136500Y15470D01*
X137414Y15590D01*
X138265Y15943D01*
X138996Y16504D01*
X139251Y16836D01*
X140217Y16917D01*
X141186Y16917D01*
X141504Y16504D01*
X142235Y15943D01*
X143086Y15590D01*
X144000Y15470D01*
X149000Y15470D01*
X149914Y15590D01*
X150765Y15943D01*
X151496Y16504D01*
X151814Y16917D01*
X152783Y16917D01*
X154186Y16917D01*
X154504Y16504D01*
X155235Y15943D01*
X156086Y15590D01*
X157000Y15470D01*
X157914Y15590D01*
X158765Y15943D01*
X159496Y16504D01*
X163996Y21004D01*
X164557Y21735D01*
X164910Y22586D01*
X165030Y23500D01*
X165030Y25000D01*
X165030Y39388D01*
X165047Y39517D01*
X165047Y47500D01*
X165047Y59045D01*
X164927Y59958D01*
X164574Y60810D01*
X164013Y61541D01*
X163324Y62069D01*
X162540Y62690D01*
X162893Y63542D01*
X163013Y64455D01*
X163013Y65955D01*
X162893Y66869D01*
X162540Y67720D01*
X161979Y68451D01*
X156465Y73965D01*
X155734Y74526D01*
X154883Y74879D01*
X153969Y74999D01*
X153305Y74912D01*
X151759Y75552D01*
X151272Y76372D01*
X151102Y76782D01*
X150541Y77513D01*
X149810Y78074D01*
X148959Y78427D01*
X148045Y78547D01*
X148045Y78547D02*
G37*
G36*
X69140Y77516D02*
X66984Y77516D01*
X66984Y75360D01*
X67269Y75437D01*
X68019Y75869D01*
X68631Y76481D01*
X69063Y77231D01*
X69140Y77516D01*
X69140Y77516D02*
G37*
G36*
X65016Y77516D02*
X62860Y77516D01*
X62937Y77231D01*
X63369Y76481D01*
X63981Y75869D01*
X64731Y75437D01*
X65016Y75360D01*
X65016Y77516D01*
X65016Y77516D02*
G37*
G36*
X47827Y79068D02*
X47827Y74327D01*
X52568Y74327D01*
X52426Y75036D01*
X51989Y76093D01*
X51353Y77044D01*
X50544Y77853D01*
X49593Y78489D01*
X48536Y78926D01*
X47827Y79068D01*
X47827Y79068D02*
G37*
G36*
X45858Y79068D02*
X45149Y78926D01*
X44092Y78489D01*
X43141Y77853D01*
X42332Y77044D01*
X41696Y76093D01*
X41259Y75036D01*
X41118Y74327D01*
X45858Y74327D01*
X45858Y79068D01*
X45858Y79068D02*
G37*
G36*
X28142Y79068D02*
X28142Y74327D01*
X32882Y74327D01*
X32741Y75036D01*
X32304Y76093D01*
X31668Y77044D01*
X30859Y77853D01*
X29908Y78489D01*
X28851Y78926D01*
X28142Y79068D01*
X28142Y79068D02*
G37*
G36*
X26173Y79068D02*
X25464Y78926D01*
X24407Y78489D01*
X23456Y77853D01*
X22647Y77044D01*
X22011Y76093D01*
X21574Y75036D01*
X21432Y74327D01*
X26173Y74327D01*
X26173Y79068D01*
X26173Y79068D02*
G37*
G36*
X52568Y72358D02*
X47827Y72358D01*
X47827Y67617D01*
X48536Y67759D01*
X49593Y68196D01*
X50544Y68832D01*
X51353Y69641D01*
X51989Y70592D01*
X52426Y71649D01*
X52568Y72358D01*
X52568Y72358D02*
G37*
G36*
X45858Y72358D02*
X41118Y72358D01*
X41259Y71649D01*
X41696Y70592D01*
X42332Y69641D01*
X43141Y68832D01*
X44092Y68196D01*
X45149Y67759D01*
X45858Y67617D01*
X45858Y72358D01*
X45858Y72358D02*
G37*
G36*
X32882Y72358D02*
X28142Y72358D01*
X28142Y67617D01*
X28851Y67759D01*
X29908Y68196D01*
X30859Y68832D01*
X31668Y69641D01*
X32304Y70592D01*
X32741Y71649D01*
X32882Y72358D01*
X32882Y72358D02*
G37*
G36*
X26173Y72358D02*
X21432Y72358D01*
X21574Y71649D01*
X22011Y70592D01*
X22647Y69641D01*
X23456Y68832D01*
X24407Y68196D01*
X25464Y67759D01*
X26173Y67617D01*
X26173Y72358D01*
X26173Y72358D02*
G37*
G36*
X28142Y59383D02*
X28142Y54642D01*
X32882Y54642D01*
X32741Y55351D01*
X32304Y56408D01*
X31668Y57359D01*
X30859Y58168D01*
X29908Y58804D01*
X28851Y59241D01*
X28142Y59383D01*
X28142Y59383D02*
G37*
G36*
X26173Y59383D02*
X25464Y59241D01*
X24407Y58804D01*
X23456Y58168D01*
X22647Y57359D01*
X22011Y56408D01*
X21574Y55351D01*
X21432Y54642D01*
X26173Y54642D01*
X26173Y59383D01*
X26173Y59383D02*
G37*
G36*
X88461Y52464D02*
X86984Y52464D01*
X86984Y50988D01*
X88461Y50988D01*
X88461Y52464D01*
X88461Y52464D02*
G37*
G36*
X85016Y52464D02*
X83539Y52464D01*
X83539Y50988D01*
X85016Y50988D01*
X85016Y52464D01*
X85016Y52464D02*
G37*
G36*
X139484Y51140D02*
X139484Y48984D01*
X141640Y48984D01*
X141563Y49269D01*
X141131Y50019D01*
X140518Y50631D01*
X139769Y51063D01*
X139484Y51140D01*
X139484Y51140D02*
G37*
G36*
X137516Y51140D02*
X137231Y51063D01*
X136481Y50631D01*
X135869Y50019D01*
X135437Y49269D01*
X135360Y48984D01*
X137516Y48984D01*
X137516Y51140D01*
X137516Y51140D02*
G37*
G36*
X52568Y52673D02*
X47827Y52673D01*
X47827Y47932D01*
X48536Y48074D01*
X49593Y48511D01*
X50544Y49147D01*
X51353Y49956D01*
X51989Y50907D01*
X52426Y51964D01*
X52568Y52673D01*
X52568Y52673D02*
G37*
G36*
X45858Y52673D02*
X41118Y52673D01*
X41259Y51964D01*
X41696Y50907D01*
X42332Y49956D01*
X43141Y49147D01*
X44092Y48511D01*
X45149Y48074D01*
X45858Y47932D01*
X45858Y52673D01*
X45858Y52673D02*
G37*
G36*
X32882Y52673D02*
X28142Y52673D01*
X28142Y47932D01*
X28851Y48074D01*
X29908Y48511D01*
X30859Y49147D01*
X31668Y49956D01*
X32304Y50907D01*
X32741Y51964D01*
X32882Y52673D01*
X32882Y52673D02*
G37*
G36*
X26173Y52673D02*
X21432Y52673D01*
X21574Y51964D01*
X22011Y50907D01*
X22647Y49956D01*
X23456Y49147D01*
X24407Y48511D01*
X25464Y48074D01*
X26173Y47932D01*
X26173Y52673D01*
X26173Y52673D02*
G37*
G36*
X141640Y47016D02*
X139484Y47016D01*
X139484Y44860D01*
X139769Y44937D01*
X140518Y45369D01*
X141131Y45981D01*
X141563Y46731D01*
X141640Y47016D01*
X141640Y47016D02*
G37*
G36*
X137516Y47016D02*
X135360Y47016D01*
X135437Y46731D01*
X135869Y45981D01*
X136481Y45369D01*
X137231Y44937D01*
X137516Y44860D01*
X137516Y47016D01*
X137516Y47016D02*
G37*
G36*
X66484Y45640D02*
X66484Y43484D01*
X68640Y43484D01*
X68563Y43769D01*
X68131Y44519D01*
X67519Y45131D01*
X66769Y45563D01*
X66484Y45640D01*
X66484Y45640D02*
G37*
G36*
X64516Y45640D02*
X64231Y45563D01*
X63481Y45131D01*
X62869Y44519D01*
X62437Y43769D01*
X62360Y43484D01*
X64516Y43484D01*
X64516Y45640D01*
X64516Y45640D02*
G37*
G36*
X68640Y41516D02*
X66484Y41516D01*
X66484Y39360D01*
X66769Y39437D01*
X67519Y39869D01*
X68131Y40481D01*
X68563Y41231D01*
X68640Y41516D01*
X68640Y41516D02*
G37*
G36*
X64516Y41516D02*
X62360Y41516D01*
X62437Y41231D01*
X62869Y40481D01*
X63481Y39869D01*
X64231Y39437D01*
X64516Y39360D01*
X64516Y41516D01*
X64516Y41516D02*
G37*
G36*
X33827Y38568D02*
X33827Y33827D01*
X38568Y33827D01*
X38426Y34536D01*
X37989Y35593D01*
X37353Y36544D01*
X36544Y37353D01*
X35593Y37989D01*
X34536Y38426D01*
X33827Y38568D01*
X33827Y38568D02*
G37*
G36*
X14142Y38568D02*
X14142Y33827D01*
X18882Y33827D01*
X18741Y34536D01*
X18304Y35593D01*
X17668Y36544D01*
X16859Y37353D01*
X15908Y37989D01*
X14851Y38426D01*
X14142Y38568D01*
X14142Y38568D02*
G37*
G36*
X31858Y38568D02*
X31149Y38426D01*
X30092Y37989D01*
X29141Y37353D01*
X28332Y36544D01*
X27696Y35593D01*
X27259Y34536D01*
X27117Y33827D01*
X31858Y33827D01*
X31858Y38568D01*
X31858Y38568D02*
G37*
G36*
X12173Y38568D02*
X11464Y38426D01*
X10407Y37989D01*
X9456Y37353D01*
X8647Y36544D01*
X8011Y35593D01*
X7574Y34536D01*
X7432Y33827D01*
X12173Y33827D01*
X12173Y38568D01*
X12173Y38568D02*
G37*
G36*
X45461Y34012D02*
X43984Y34012D01*
X43984Y32535D01*
X45461Y32535D01*
X45461Y34012D01*
X45461Y34012D02*
G37*
G36*
X42016Y34012D02*
X40539Y34012D01*
X40539Y32535D01*
X42016Y32535D01*
X42016Y34012D01*
X42016Y34012D02*
G37*
G36*
X18882Y31858D02*
X14142Y31858D01*
X14142Y27117D01*
X14851Y27259D01*
X15908Y27696D01*
X16859Y28332D01*
X17668Y29141D01*
X18304Y30092D01*
X18741Y31149D01*
X18882Y31858D01*
X18882Y31858D02*
G37*
G36*
X12173Y31858D02*
X7432Y31858D01*
X7574Y31149D01*
X8011Y30092D01*
X8647Y29141D01*
X9456Y28332D01*
X10407Y27696D01*
X11464Y27259D01*
X12173Y27117D01*
X12173Y31858D01*
X12173Y31858D02*
G37*
G36*
X150749Y28859D02*
X149705Y27815D01*
X150749Y26771D01*
X151793Y27815D01*
X150749Y28859D01*
X150749Y28859D02*
G37*
G36*
X14142Y18883D02*
X14142Y14142D01*
X18883Y14142D01*
X18741Y14851D01*
X18304Y15908D01*
X17668Y16859D01*
X16859Y17668D01*
X15908Y18304D01*
X14851Y18741D01*
X14142Y18883D01*
X14142Y18883D02*
G37*
G36*
X12173Y18883D02*
X11464Y18741D01*
X10407Y18304D01*
X9456Y17668D01*
X8647Y16859D01*
X8011Y15908D01*
X7574Y14851D01*
X7432Y14142D01*
X12173Y14142D01*
X12173Y18883D01*
X12173Y18883D02*
G37*
G36*
X58484Y14140D02*
X58484Y11984D01*
X60640Y11984D01*
X60563Y12269D01*
X60131Y13018D01*
X59518Y13631D01*
X58769Y14063D01*
X58484Y14140D01*
X58484Y14140D02*
G37*
G36*
X56516Y14140D02*
X56231Y14063D01*
X55481Y13631D01*
X54869Y13018D01*
X54437Y12269D01*
X54360Y11984D01*
X56516Y11984D01*
X56516Y14140D01*
X56516Y14140D02*
G37*
G36*
X60640Y10016D02*
X58484Y10016D01*
X58484Y7860D01*
X58769Y7937D01*
X59518Y8369D01*
X60131Y8981D01*
X60563Y9731D01*
X60640Y10016D01*
X60640Y10016D02*
G37*
G36*
X56516Y10016D02*
X54360Y10016D01*
X54437Y9731D01*
X54869Y8981D01*
X55481Y8369D01*
X56231Y7937D01*
X56516Y7860D01*
X56516Y10016D01*
X56516Y10016D02*
G37*
G36*
X18883Y12173D02*
X14142Y12173D01*
X14142Y7432D01*
X14851Y7574D01*
X15908Y8011D01*
X16859Y8647D01*
X17668Y9456D01*
X18304Y10407D01*
X18741Y11464D01*
X18883Y12173D01*
X18883Y12173D02*
G37*
G36*
X12173Y12173D02*
X7432Y12173D01*
X7574Y11464D01*
X8011Y10407D01*
X8647Y9456D01*
X9456Y8647D01*
X10407Y8011D01*
X11464Y7574D01*
X12173Y7432D01*
X12173Y12173D01*
X12173Y12173D02*
G37*
G36*
X31858Y12173D02*
X27117Y12173D01*
X27259Y11464D01*
X27696Y10407D01*
X28332Y9456D01*
X29141Y8647D01*
X30092Y8011D01*
X31149Y7574D01*
X31858Y7432D01*
X31858Y12173D01*
X31858Y12173D02*
G37*
G36*
X38568Y12173D02*
X33827Y12173D01*
X33827Y7432D01*
X34536Y7574D01*
X35593Y8011D01*
X36544Y8647D01*
X37353Y9456D01*
X37989Y10407D01*
X38427Y11464D01*
X38568Y12173D01*
X38568Y12173D02*
G37*
%LPD*%
D10*
X157100Y30500D02*
D03*
X159500Y30500D02*
D03*
X159700Y36000D02*
D03*
X157300Y36000D02*
D03*
X159700Y42000D02*
D03*
X157300Y42000D02*
D03*
X159700Y47500D02*
D03*
X157300Y47500D02*
D03*
X159700Y53000D02*
D03*
X157300Y53000D02*
D03*
D11*
X157500Y23500D02*
D03*
X153185Y27815D02*
D03*
D12*
X91843Y32000D02*
D03*
X97158Y32000D02*
D03*
X67843Y22500D02*
D03*
X73158Y22500D02*
D03*
X130685Y75000D02*
D03*
X136000Y75000D02*
D03*
D13*
X105045Y31517D02*
D03*
X109955Y29483D02*
D03*
X148045Y74517D02*
D03*
X152955Y72483D02*
D03*
D14*
X150700Y19000D02*
D03*
X155300Y19000D02*
D03*
X137700Y19000D02*
D03*
X142300Y19000D02*
D03*
X126700Y19000D02*
D03*
X131300Y19000D02*
D03*
X94800Y62500D02*
D03*
X90200Y62500D02*
D03*
D15*
X116121Y24379D02*
D03*
X119879Y20621D02*
D03*
D16*
X81242Y23742D02*
D03*
X85000Y27500D02*
D03*
X117121Y68121D02*
D03*
X120879Y71879D02*
D03*
D17*
X62000Y24300D02*
D03*
X62000Y26700D02*
D03*
X56000Y24500D02*
D03*
X56000Y26900D02*
D03*
X49500Y24500D02*
D03*
X49500Y26900D02*
D03*
X78500Y60200D02*
D03*
X78500Y57800D02*
D03*
X62000Y60200D02*
D03*
X62000Y57800D02*
D03*
X70500Y60200D02*
D03*
X70500Y57800D02*
D03*
D18*
X43000Y25449D02*
D03*
X43000Y31551D02*
D03*
X86000Y59551D02*
D03*
X86000Y53449D02*
D03*
D19*
X159483Y63955D02*
D03*
X161517Y59045D02*
D03*
D20*
X105045Y61983D02*
D03*
X109955Y64017D02*
D03*
D21*
X53000Y22517D02*
X65500Y22517D01*
X53000Y22517D02*
X53000Y22517D01*
X42500Y22517D02*
X53000Y22517D01*
X23483Y22517D02*
X42500Y22517D01*
X75000Y22500D02*
X80000Y22500D01*
X86750Y28750D02*
X90000Y32000D01*
X99461Y32000D02*
X103461Y32000D01*
X112000Y28500D02*
X115000Y25500D01*
X121500Y19000D02*
X125000Y19000D01*
X133000Y19000D02*
X136500Y19000D01*
X144000Y19000D02*
X149000Y19000D01*
X161517Y47500D02*
X161517Y59045D01*
X161517Y39517D02*
X161517Y47500D01*
X161500Y25000D02*
X161500Y39500D01*
X161500Y23500D02*
X161500Y25000D01*
X157000Y19000D02*
X161500Y23500D01*
X161500Y39500D02*
X161517Y39517D01*
X23000Y23000D02*
X23483Y22517D01*
X159483Y64455D02*
X159483Y65955D01*
X153969Y71469D02*
X159483Y65955D01*
X96517Y61983D02*
X103500Y61983D01*
X111500Y64500D02*
X113500Y64500D01*
X116250Y67250D01*
X96500Y62000D02*
X96517Y61983D01*
X121379Y72379D02*
X124000Y75000D01*
X129500Y75000D01*
X137983Y75017D02*
X148045Y75017D01*
D22*
X83500Y62500D02*
X87500Y62500D01*
X67500Y62500D02*
X83500Y62500D01*
X40435Y62500D02*
X67500Y62500D01*
X40365Y62570D02*
X40435Y62500D01*
D23*
X32842Y32842D02*
D03*
X32842Y13158D02*
D03*
X13158Y13158D02*
D03*
X13158Y32842D02*
D03*
X27158Y73343D02*
D03*
X46843Y73343D02*
D03*
X46843Y53658D02*
D03*
X27158Y53658D02*
D03*
D24*
X23000Y23000D02*
D03*
X37000Y63500D02*
D03*
D25*
X57500Y11000D02*
D03*
X65500Y42500D02*
D03*
X66000Y78500D02*
D03*
X138500Y48000D02*
D03*
%TF.MD5,7099f6b85f1b0e962a7dd32754922882*%
M02*
