%TF.GenerationSoftware,Altium Limited,Altium Designer,21.9.2 (33)*%
G04 Layer_Physical_Order=2*
G04 Layer_Color=16711680*
%FSLAX25Y25*%
%MOIN*%
%TF.SameCoordinates,C6803599-17ED-4D67-9099-DDF32DD067AF*%
%TF.FilePolarity,Positive*%
%TF.FileFunction,Copper,L2,Bot,Signal*%
%TF.Part,Single*%
G01*
G75*
%TA.AperFunction,ComponentPad*%
%ADD23C,0.10039*%
%ADD24C,0.08858*%
%TA.AperFunction,ViaPad*%
%ADD25C,0.05000*%
G36*
X183500Y0D02*
X0Y0D01*
X0Y95000D01*
X183500Y95000D01*
X183500Y0D01*
X183500Y0D02*
G37*
%LPC*%
G36*
X66984Y81640D02*
X66984Y79484D01*
X69140Y79484D01*
X69063Y79769D01*
X68631Y80519D01*
X68019Y81131D01*
X67269Y81563D01*
X66984Y81640D01*
X66984Y81640D02*
G37*
G36*
X65016Y81640D02*
X64731Y81563D01*
X63981Y81131D01*
X63369Y80519D01*
X62937Y79769D01*
X62860Y79484D01*
X65016Y79484D01*
X65016Y81640D01*
X65016Y81640D02*
G37*
G36*
X69140Y77516D02*
X66984Y77516D01*
X66984Y75360D01*
X67269Y75437D01*
X68019Y75869D01*
X68631Y76481D01*
X69063Y77231D01*
X69140Y77516D01*
X69140Y77516D02*
G37*
G36*
X65016Y77516D02*
X62860Y77516D01*
X62937Y77231D01*
X63369Y76481D01*
X63981Y75869D01*
X64731Y75437D01*
X65016Y75360D01*
X65016Y77516D01*
X65016Y77516D02*
G37*
G36*
X47827Y79068D02*
X47827Y74327D01*
X52568Y74327D01*
X52426Y75036D01*
X51989Y76093D01*
X51353Y77044D01*
X50544Y77853D01*
X49593Y78489D01*
X48536Y78926D01*
X47827Y79068D01*
X47827Y79068D02*
G37*
G36*
X45858Y79068D02*
X45149Y78926D01*
X44092Y78489D01*
X43141Y77853D01*
X42332Y77044D01*
X41696Y76093D01*
X41259Y75036D01*
X41118Y74327D01*
X45858Y74327D01*
X45858Y79068D01*
X45858Y79068D02*
G37*
G36*
X28142Y79068D02*
X28142Y74327D01*
X32882Y74327D01*
X32741Y75036D01*
X32304Y76093D01*
X31668Y77044D01*
X30859Y77853D01*
X29908Y78489D01*
X28851Y78926D01*
X28142Y79068D01*
X28142Y79068D02*
G37*
G36*
X26173Y79068D02*
X25464Y78926D01*
X24407Y78489D01*
X23456Y77853D01*
X22647Y77044D01*
X22011Y76093D01*
X21574Y75036D01*
X21432Y74327D01*
X26173Y74327D01*
X26173Y79068D01*
X26173Y79068D02*
G37*
G36*
X52568Y72358D02*
X47827Y72358D01*
X47827Y67617D01*
X48536Y67759D01*
X49593Y68196D01*
X50544Y68832D01*
X51353Y69641D01*
X51989Y70592D01*
X52426Y71649D01*
X52568Y72358D01*
X52568Y72358D02*
G37*
G36*
X45858Y72358D02*
X41118Y72358D01*
X41259Y71649D01*
X41696Y70592D01*
X42332Y69641D01*
X43141Y68832D01*
X44092Y68196D01*
X45149Y67759D01*
X45858Y67617D01*
X45858Y72358D01*
X45858Y72358D02*
G37*
G36*
X32882Y72358D02*
X28142Y72358D01*
X28142Y67617D01*
X28851Y67759D01*
X29908Y68196D01*
X30859Y68832D01*
X31668Y69641D01*
X32304Y70592D01*
X32741Y71649D01*
X32882Y72358D01*
X32882Y72358D02*
G37*
G36*
X26173Y72358D02*
X21432Y72358D01*
X21574Y71649D01*
X22011Y70592D01*
X22647Y69641D01*
X23456Y68832D01*
X24407Y68196D01*
X25464Y67759D01*
X26173Y67617D01*
X26173Y72358D01*
X26173Y72358D02*
G37*
G36*
X37715Y68929D02*
X36285Y68929D01*
X34904Y68559D01*
X33666Y67844D01*
X32656Y66834D01*
X31941Y65596D01*
X31571Y64215D01*
X31571Y62785D01*
X31941Y61404D01*
X32656Y60166D01*
X33666Y59156D01*
X34904Y58441D01*
X36285Y58071D01*
X37715Y58071D01*
X39096Y58441D01*
X40334Y59156D01*
X41344Y60166D01*
X42059Y61404D01*
X42429Y62785D01*
X42429Y64215D01*
X42059Y65596D01*
X41344Y66834D01*
X40334Y67844D01*
X39096Y68559D01*
X37715Y68929D01*
X37715Y68929D02*
G37*
G36*
X47827Y59383D02*
X47827Y54642D01*
X52568Y54642D01*
X52426Y55351D01*
X51989Y56408D01*
X51353Y57359D01*
X50544Y58168D01*
X49593Y58804D01*
X48536Y59241D01*
X47827Y59383D01*
X47827Y59383D02*
G37*
G36*
X45858Y59383D02*
X45149Y59241D01*
X44092Y58804D01*
X43141Y58168D01*
X42332Y57359D01*
X41696Y56408D01*
X41259Y55351D01*
X41118Y54642D01*
X45858Y54642D01*
X45858Y59383D01*
X45858Y59383D02*
G37*
G36*
X28142Y59383D02*
X28142Y54642D01*
X32882Y54642D01*
X32741Y55351D01*
X32304Y56408D01*
X31668Y57359D01*
X30859Y58168D01*
X29908Y58804D01*
X28851Y59241D01*
X28142Y59383D01*
X28142Y59383D02*
G37*
G36*
X26173Y59383D02*
X25464Y59241D01*
X24407Y58804D01*
X23456Y58168D01*
X22647Y57359D01*
X22011Y56408D01*
X21574Y55351D01*
X21432Y54642D01*
X26173Y54642D01*
X26173Y59383D01*
X26173Y59383D02*
G37*
G36*
X139484Y51140D02*
X139484Y48984D01*
X141640Y48984D01*
X141563Y49269D01*
X141131Y50019D01*
X140518Y50631D01*
X139769Y51063D01*
X139484Y51140D01*
X139484Y51140D02*
G37*
G36*
X137516Y51140D02*
X137231Y51063D01*
X136481Y50631D01*
X135869Y50019D01*
X135437Y49269D01*
X135360Y48984D01*
X137516Y48984D01*
X137516Y51140D01*
X137516Y51140D02*
G37*
G36*
X52568Y52673D02*
X47827Y52673D01*
X47827Y47932D01*
X48536Y48074D01*
X49593Y48511D01*
X50544Y49147D01*
X51353Y49956D01*
X51989Y50907D01*
X52426Y51964D01*
X52568Y52673D01*
X52568Y52673D02*
G37*
G36*
X45858Y52673D02*
X41118Y52673D01*
X41259Y51964D01*
X41696Y50907D01*
X42332Y49956D01*
X43141Y49147D01*
X44092Y48511D01*
X45149Y48074D01*
X45858Y47932D01*
X45858Y52673D01*
X45858Y52673D02*
G37*
G36*
X32882Y52673D02*
X28142Y52673D01*
X28142Y47932D01*
X28851Y48074D01*
X29908Y48511D01*
X30859Y49147D01*
X31668Y49956D01*
X32304Y50907D01*
X32741Y51964D01*
X32882Y52673D01*
X32882Y52673D02*
G37*
G36*
X26173Y52673D02*
X21432Y52673D01*
X21574Y51964D01*
X22011Y50907D01*
X22647Y49956D01*
X23456Y49147D01*
X24407Y48511D01*
X25464Y48074D01*
X26173Y47932D01*
X26173Y52673D01*
X26173Y52673D02*
G37*
G36*
X141640Y47016D02*
X139484Y47016D01*
X139484Y44860D01*
X139769Y44937D01*
X140518Y45369D01*
X141131Y45981D01*
X141563Y46731D01*
X141640Y47016D01*
X141640Y47016D02*
G37*
G36*
X137516Y47016D02*
X135360Y47016D01*
X135437Y46731D01*
X135869Y45981D01*
X136481Y45369D01*
X137231Y44937D01*
X137516Y44860D01*
X137516Y47016D01*
X137516Y47016D02*
G37*
G36*
X66484Y45640D02*
X66484Y43484D01*
X68640Y43484D01*
X68563Y43769D01*
X68131Y44519D01*
X67519Y45131D01*
X66769Y45563D01*
X66484Y45640D01*
X66484Y45640D02*
G37*
G36*
X64516Y45640D02*
X64231Y45563D01*
X63481Y45131D01*
X62869Y44519D01*
X62437Y43769D01*
X62360Y43484D01*
X64516Y43484D01*
X64516Y45640D01*
X64516Y45640D02*
G37*
G36*
X68640Y41516D02*
X66484Y41516D01*
X66484Y39360D01*
X66769Y39437D01*
X67519Y39869D01*
X68131Y40481D01*
X68563Y41231D01*
X68640Y41516D01*
X68640Y41516D02*
G37*
G36*
X64516Y41516D02*
X62360Y41516D01*
X62437Y41231D01*
X62869Y40481D01*
X63481Y39869D01*
X64231Y39437D01*
X64516Y39360D01*
X64516Y41516D01*
X64516Y41516D02*
G37*
G36*
X33827Y38568D02*
X33827Y33827D01*
X38568Y33827D01*
X38426Y34536D01*
X37989Y35593D01*
X37353Y36544D01*
X36544Y37353D01*
X35593Y37989D01*
X34536Y38426D01*
X33827Y38568D01*
X33827Y38568D02*
G37*
G36*
X14142Y38568D02*
X14142Y33827D01*
X18882Y33827D01*
X18741Y34536D01*
X18304Y35593D01*
X17668Y36544D01*
X16859Y37353D01*
X15908Y37989D01*
X14851Y38426D01*
X14142Y38568D01*
X14142Y38568D02*
G37*
G36*
X31858Y38568D02*
X31149Y38426D01*
X30092Y37989D01*
X29141Y37353D01*
X28332Y36544D01*
X27696Y35593D01*
X27259Y34536D01*
X27117Y33827D01*
X31858Y33827D01*
X31858Y38568D01*
X31858Y38568D02*
G37*
G36*
X12173Y38568D02*
X11464Y38426D01*
X10407Y37989D01*
X9456Y37353D01*
X8647Y36544D01*
X8011Y35593D01*
X7574Y34536D01*
X7432Y33827D01*
X12173Y33827D01*
X12173Y38568D01*
X12173Y38568D02*
G37*
G36*
X38568Y31858D02*
X33827Y31858D01*
X33827Y27117D01*
X34536Y27259D01*
X35593Y27696D01*
X36544Y28332D01*
X37353Y29141D01*
X37989Y30092D01*
X38426Y31149D01*
X38568Y31858D01*
X38568Y31858D02*
G37*
G36*
X18882Y31858D02*
X14142Y31858D01*
X14142Y27117D01*
X14851Y27259D01*
X15908Y27696D01*
X16859Y28332D01*
X17668Y29141D01*
X18304Y30092D01*
X18741Y31149D01*
X18882Y31858D01*
X18882Y31858D02*
G37*
G36*
X31858Y31858D02*
X27117Y31858D01*
X27259Y31149D01*
X27696Y30092D01*
X28332Y29141D01*
X29141Y28332D01*
X30092Y27696D01*
X31149Y27259D01*
X31858Y27117D01*
X31858Y31858D01*
X31858Y31858D02*
G37*
G36*
X12173Y31858D02*
X7432Y31858D01*
X7574Y31149D01*
X8011Y30092D01*
X8647Y29141D01*
X9456Y28332D01*
X10407Y27696D01*
X11464Y27259D01*
X12173Y27117D01*
X12173Y31858D01*
X12173Y31858D02*
G37*
G36*
X23715Y28429D02*
X22285Y28429D01*
X20904Y28059D01*
X19666Y27344D01*
X18656Y26334D01*
X17941Y25096D01*
X17571Y23715D01*
X17571Y22285D01*
X17941Y20904D01*
X18656Y19666D01*
X19666Y18656D01*
X20904Y17941D01*
X22285Y17571D01*
X23715Y17571D01*
X25096Y17941D01*
X26334Y18656D01*
X27344Y19666D01*
X28059Y20904D01*
X28429Y22285D01*
X28429Y23715D01*
X28059Y25096D01*
X27344Y26334D01*
X26334Y27344D01*
X25096Y28059D01*
X23715Y28429D01*
X23715Y28429D02*
G37*
G36*
X14142Y18883D02*
X14142Y14142D01*
X18883Y14142D01*
X18741Y14851D01*
X18304Y15908D01*
X17668Y16859D01*
X16859Y17668D01*
X15908Y18304D01*
X14851Y18741D01*
X14142Y18883D01*
X14142Y18883D02*
G37*
G36*
X33827Y18882D02*
X33827Y14142D01*
X38568Y14142D01*
X38427Y14851D01*
X37989Y15908D01*
X37353Y16859D01*
X36544Y17668D01*
X35593Y18304D01*
X34536Y18741D01*
X33827Y18882D01*
X33827Y18882D02*
G37*
G36*
X31858Y18882D02*
X31149Y18741D01*
X30092Y18304D01*
X29141Y17668D01*
X28332Y16859D01*
X27696Y15908D01*
X27259Y14851D01*
X27117Y14142D01*
X31858Y14142D01*
X31858Y18882D01*
X31858Y18882D02*
G37*
G36*
X12173Y18883D02*
X11464Y18741D01*
X10407Y18304D01*
X9456Y17668D01*
X8647Y16859D01*
X8011Y15908D01*
X7574Y14851D01*
X7432Y14142D01*
X12173Y14142D01*
X12173Y18883D01*
X12173Y18883D02*
G37*
G36*
X58484Y14140D02*
X58484Y11984D01*
X60640Y11984D01*
X60563Y12269D01*
X60131Y13018D01*
X59518Y13631D01*
X58769Y14063D01*
X58484Y14140D01*
X58484Y14140D02*
G37*
G36*
X56516Y14140D02*
X56231Y14063D01*
X55481Y13631D01*
X54869Y13018D01*
X54437Y12269D01*
X54360Y11984D01*
X56516Y11984D01*
X56516Y14140D01*
X56516Y14140D02*
G37*
G36*
X60640Y10016D02*
X58484Y10016D01*
X58484Y7860D01*
X58769Y7937D01*
X59518Y8369D01*
X60131Y8981D01*
X60563Y9731D01*
X60640Y10016D01*
X60640Y10016D02*
G37*
G36*
X56516Y10016D02*
X54360Y10016D01*
X54437Y9731D01*
X54869Y8981D01*
X55481Y8369D01*
X56231Y7937D01*
X56516Y7860D01*
X56516Y10016D01*
X56516Y10016D02*
G37*
G36*
X18883Y12173D02*
X14142Y12173D01*
X14142Y7432D01*
X14851Y7574D01*
X15908Y8011D01*
X16859Y8647D01*
X17668Y9456D01*
X18304Y10407D01*
X18741Y11464D01*
X18883Y12173D01*
X18883Y12173D02*
G37*
G36*
X12173Y12173D02*
X7432Y12173D01*
X7574Y11464D01*
X8011Y10407D01*
X8647Y9456D01*
X9456Y8647D01*
X10407Y8011D01*
X11464Y7574D01*
X12173Y7432D01*
X12173Y12173D01*
X12173Y12173D02*
G37*
G36*
X31858Y12173D02*
X27117Y12173D01*
X27259Y11464D01*
X27696Y10407D01*
X28332Y9456D01*
X29141Y8647D01*
X30092Y8011D01*
X31149Y7574D01*
X31858Y7432D01*
X31858Y12173D01*
X31858Y12173D02*
G37*
G36*
X38568Y12173D02*
X33827Y12173D01*
X33827Y7432D01*
X34536Y7574D01*
X35593Y8011D01*
X36544Y8647D01*
X37353Y9456D01*
X37989Y10407D01*
X38427Y11464D01*
X38568Y12173D01*
X38568Y12173D02*
G37*
%LPD*%
D23*
X32842Y32842D02*
D03*
X32842Y13158D02*
D03*
X13158Y13158D02*
D03*
X13158Y32842D02*
D03*
X27158Y73343D02*
D03*
X46843Y73343D02*
D03*
X46843Y53658D02*
D03*
X27158Y53658D02*
D03*
D24*
X23000Y23000D02*
D03*
X37000Y63500D02*
D03*
D25*
X57500Y11000D02*
D03*
X65500Y42500D02*
D03*
X66000Y78500D02*
D03*
X138500Y48000D02*
D03*
%TF.MD5,4ae3c9667c0ec7c5eda37ec07d8891b8*%
M02*
